<svg width="25" height="51" viewBox="0 0 25 51" fill="none" xmlns="http://www.w3.org/2000/svg">
<g clip-path="url(#clip0)">
<path fill-rule="evenodd" clip-rule="evenodd" d="M-23.9548 50.6674C-26.2436 49.2517 -28.2994 47.4873 -30.001 45.4179C-30.4636 45.1826 -33.2593 43.6529 -35.7894 43.9653C-32.444 44.6695 -29.8129 46.1875 -29.4694 46.2004C-30.1662 46.7355 -32.0457 46.4803 -33.977 45.7317C-35.5447 45.114 -37.2805 44.1772 -38.0439 43.3218C-34.6562 42.1787 -31.5961 43.7352 -30.2164 45.1557C-31.0527 44.1103 -31.8025 43.0012 -32.4551 41.8427C-33.3343 41.737 -34.667 40.592 -35.7917 39.0945C-36.8002 37.755 -37.7901 36.0476 -37.9848 34.9063C-34.2509 35.7453 -32.47 39.0409 -32.2122 40.933C-32.367 40.6926 -33.9941 37.7267 -36.4081 36.6247C-33.9293 38.9636 -32.4887 41.646 -32.1973 41.8301C-32.2223 41.8264 -32.2367 41.837 -32.2617 41.8333C-31.5178 43.146 -30.6479 44.3881 -29.6586 45.5202C-30.5764 43.7596 -31.1375 40.5183 -29.1477 37.658C-28.5325 38.6447 -28.1141 40.5736 -27.961 42.2328C-27.7648 44.1924 -28.0177 45.9954 -28.6616 46.6023C-27.0482 48.2495 -25.2068 49.6622 -23.1584 50.8119C-24.5564 49.427 -26.118 46.3686 -24.9418 42.9777C-24.0774 43.7588 -23.1557 45.4944 -22.5543 47.0671C-21.8482 48.8727 -21.6105 50.6468 -22.013 51.4304C-20.0165 52.4189 -17.8524 53.1512 -15.592 53.5911C-17.3385 52.6399 -19.521 50.3708 -19.5799 47.0256C-18.4969 47.4686 -17.0373 48.7859 -15.9385 50.0367C-14.7088 51.4348 -13.8813 52.9517 -13.9308 53.852C-12.2369 54.0666 -10.491 54.1101 -8.72858 53.9642C-8.2091 53.914 -7.68961 53.8638 -7.16626 53.7885C-9.14199 53.4934 -11.9608 52.1137 -13.1569 49.0076C-11.9872 49.0545 -10.1665 49.7738 -8.69418 50.5946C-7.04391 51.5058 -5.73621 52.6471 -5.49904 53.5134C-0.59234 52.4558 -2.77905 54.2572 4.05447 49.2262C4.58856 48.833 5.12651 48.4148 5.6183 47.9641C5.02798 47.3135 4.88363 45.515 5.18474 43.5658C5.42896 41.9021 5.96573 40.0008 6.63863 39.0403C8.5014 42.0542 7.68785 45.333 6.63461 47.0165C8.30636 45.3871 9.78778 43.4991 10.9855 41.377C10.2287 40.8932 9.52727 39.3056 9.14727 37.4591C8.82584 35.8132 8.65463 33.8573 8.95726 32.7264C11.5824 34.7804 12.0589 37.9068 11.7434 39.8667C11.9562 39.3999 12.1834 38.9225 12.3751 38.427C13.0378 36.7874 13.5148 35.1074 13.8129 33.4261C12.9492 33.2204 11.7464 31.9797 10.766 30.376C9.88746 28.9409 9.06299 27.1559 8.97219 26.0046C12.149 27.0544 13.6675 29.8123 14.0571 31.7624C14.319 29.4877 14.2624 27.2038 13.9008 24.9894C13.0292 25.166 11.4097 24.3872 9.89517 23.1767C8.57204 22.1354 7.18847 20.7399 6.69936 19.6825C10.2722 19.577 12.7432 21.9658 13.6504 23.712C13.1715 21.429 12.3588 19.2367 11.2651 17.207C10.4944 17.6415 8.687 17.3332 6.88466 16.5782C5.33527 15.925 3.62826 14.9669 2.86875 14.0865C6.17651 13.0465 9.11937 14.5343 10.5135 15.9442C9.71187 14.6739 8.79862 13.4637 7.76602 12.3635C7.76216 12.3885 7.74773 12.3991 7.74387 12.4241C7.64014 12.1018 5.52107 9.91895 4.02387 6.85741C4.34479 9.50038 6.70808 11.9243 6.89171 12.1435C5.16154 11.3353 2.54346 8.65607 2.85129 4.84146C3.89378 5.38067 5.20517 6.82932 6.19916 8.17942C7.30561 9.71251 7.99261 11.3108 7.83249 12.1817C8.75548 13.1633 9.58129 14.1942 10.3311 15.3033C9.3844 13.564 8.79257 10.1903 10.9046 7.28431C11.5053 8.28166 11.8843 10.2174 11.9979 11.8835C12.1537 13.9393 11.8353 15.8348 11.1069 16.3268C11.1965 15.9951 10.5284 13.0318 10.8495 9.62823C9.79982 11.9514 10.4303 15.0753 10.5175 15.5868C11.9882 17.8263 13.0769 20.3027 13.7345 22.9192C13.5133 20.9559 14.1691 17.7046 17.054 15.7578C17.2737 16.9028 16.962 18.8376 16.5072 20.4571C15.9444 22.444 14.995 24.1174 14.1551 24.3371C14.3515 24.0596 14.7292 21.0352 16.2064 17.9322C14.4614 19.7041 13.976 22.7636 13.8545 23.3846C14.4794 26.0474 14.6733 28.8503 14.3765 31.6823C14.7527 29.7443 16.4723 26.7285 20.0002 25.8365C19.8227 26.9861 18.8656 28.7095 17.8731 30.0825C16.666 31.7686 15.206 33.0206 14.3374 32.9292C14.6117 32.7273 16.0166 30.0097 18.4487 27.599C16.1278 28.7097 14.6036 31.5372 14.3446 31.9715C14.0944 34.1713 13.5363 36.3761 12.6781 38.5362C12.4758 39.0173 12.2774 39.4734 12.0646 39.9402C13.0928 38.253 15.7413 36.0152 19.3196 36.3707C18.7535 37.3855 17.2608 38.6838 15.8722 39.6396C14.1555 40.815 12.3765 41.4824 11.5753 41.1199C11.9092 41.0291 14.1478 38.9602 17.2633 37.5081C14.7304 37.7561 12.3446 39.867 11.9327 40.2145C10.7309 42.694 9.19259 44.8675 7.41107 46.7107C9.02391 45.5454 12.1094 44.5361 15.1918 46.032C14.3064 46.7946 12.4696 47.5046 10.8293 47.9371C8.83005 48.4566 6.90803 48.4763 6.29942 47.8613C6.65341 47.8886 9.44756 46.6952 12.8684 46.4136C10.5417 45.8232 7.77462 46.8417 7.05591 47.105C6.28498 47.8719 5.47177 48.5814 4.62683 49.2478C4.51135 49.3328 4.39587 49.4178 4.28039 49.5028C4.16491 49.5878 4.04943 49.6729 3.93395 49.7579C3.05729 50.3811 2.13833 50.947 1.1665 51.441C0.687125 52.0597 -1.09658 54.4139 -1.21994 56.786C0.0754951 53.6174 2.0487 51.2787 2.11332 50.9432C2.51985 51.7071 1.9302 53.5365 0.840376 55.2912C-0.045351 56.7185 -1.28322 58.2722 -2.27436 58.8911C-2.77673 55.518 -0.896675 52.8714 0.68444 51.663C-1.61523 52.8024 -4.14754 53.6258 -6.86145 54.0514C-7.31564 54.3415 -10.0398 55.9927 -11.0289 58.3377C-8.717 55.794 -6.0766 54.2709 -5.89079 53.979C-5.76809 54.8411 -6.94823 56.3522 -8.58037 57.6424C-9.90552 58.6845 -11.5885 59.7243 -12.7257 59.9635C-12.0024 56.441 -9.07905 54.5766 -7.16257 54.0959C-7.67148 54.1605 -8.18039 54.2251 -8.68544 54.2647C-11.0173 54.4533 -13.274 54.3208 -15.4488 53.9065C-15.926 54.0142 -19.0931 54.6405 -20.8429 56.5267C-17.8187 54.9203 -14.8065 54.3859 -14.5322 54.184C-14.7279 55.0368 -16.332 56.0628 -18.3006 56.7147C-19.9063 57.2547 -21.8362 57.6567 -22.9867 57.4849C-21.091 54.406 -17.6862 53.649 -15.7345 53.851C-18.5018 53.2971 -21.1352 52.2901 -23.5028 50.8883C-24.1319 50.8199 -27.1975 50.3748 -29.4077 51.5147C-26.0203 51.0364 -23.0058 51.5633 -22.6825 51.4582C-23.1418 52.195 -25.0216 52.6045 -27.086 52.5518C-28.7675 52.5052 -30.7182 52.2138 -31.7357 51.6784C-29.0632 49.5336 -25.7783 49.8837 -23.9548 50.6674ZM8.64958 20.9709C11.2779 22.4245 13.1999 24.3095 13.849 24.8283C13.7914 24.5385 13.7444 24.263 13.6868 23.9731C13.1561 23.4337 11.0322 21.3651 8.64958 20.9709ZM5.09054 14.7763C8.09249 15.4675 10.5073 16.8125 11.2055 17.0958C11.0441 16.816 10.8932 16.5506 10.7317 16.2708C10.0095 15.8945 7.45903 14.5164 5.09054 14.7763ZM13.9838 32.2372C13.5571 31.3554 12.2991 28.9815 10.3719 27.8755C12.2408 30.021 13.371 32.3119 13.8554 33.1512C13.9017 32.8514 13.9374 32.5371 13.9838 32.2372ZM-11.2355 50.3173C-10.0437 52.2083 -7.5941 53.3283 -6.70736 53.7165C-6.39181 53.6613 -6.0907 53.6168 -5.78572 53.5473C-6.62529 53.1023 -8.9864 52.0722 -11.2355 50.3173ZM6.46911 41.3799C6.5099 44.4284 5.80729 47.0719 5.69819 47.861C5.93301 47.666 6.15725 47.4566 6.3815 47.2472C6.56176 46.4943 7.29911 43.6259 6.46911 41.3799ZM9.60834 34.9713C10.6411 37.6439 10.9092 40.215 11.0742 41.1345C11.2311 40.864 11.363 40.5896 11.5094 40.3047C11.4021 39.3427 11.06 36.671 9.60834 34.9713ZM-29.1777 40.0057C-30.1148 42.1795 -29.5814 45.0204 -29.4115 45.8256C-29.1923 46.0628 -28.9837 46.2857 -28.7645 46.523C-28.8276 45.7722 -29.3947 43.0668 -29.1777 40.0057ZM-24.3196 45.2438C-24.6507 47.636 -23.3063 50.2785 -22.9487 50.9455C-22.6891 51.0865 -22.4294 51.2276 -22.1803 51.3542C-22.483 50.5804 -23.7121 48.1853 -24.3196 45.2438ZM-14.2204 53.8215C-14.878 53.1097 -16.7298 51.3502 -18.2235 48.9284C-17.7542 51.1077 -15.8466 53.0034 -15.1313 53.6727C-14.8456 53.7281 -14.5349 53.7873 -14.2204 53.8215Z" fill="#1D1D1B"/>
</g>
<defs>
<clipPath id="clip0">
<rect width="24.8301" height="50.9001" fill="white" transform="matrix(-1 0 0 1 24.8301 0.0998535)"/>
</clipPath>
</defs>
</svg>
