<svg width="32" height="32" viewBox="0 0 32 32" fill="none" xmlns="http://www.w3.org/2000/svg">
<path d="M12.001 16C12.001 13.7909 13.7913 11.9997 16.0005 11.9997C18.2096 11.9997 20.001 13.7909 20.001 16C20.001 18.2091 18.2096 20.0003 16.0005 20.0003C13.7913 20.0003 12.001 18.2091 12.001 16ZM9.83838 16C9.83838 19.4032 12.5971 22.1619 16.0005 22.1619C19.4038 22.1619 22.1626 19.4032 22.1626 16C22.1626 12.5968 19.4038 9.83814 16.0005 9.83814C12.5971 9.83814 9.83838 12.5968 9.83838 16ZM20.9665 9.59382C20.9664 9.87863 21.0507 10.1571 21.2088 10.3939C21.367 10.6308 21.5918 10.8155 21.8549 10.9246C22.118 11.0337 22.4075 11.0623 22.6869 11.0068C22.9663 10.9514 23.2229 10.8143 23.4244 10.613C23.6259 10.4117 23.7631 10.1552 23.8188 9.8759C23.8745 9.59658 23.8461 9.30704 23.7372 9.04387C23.6283 8.7807 23.4438 8.55573 23.2071 8.3974C22.9703 8.23908 22.6919 8.15451 22.4071 8.1544H22.4065C22.0248 8.15458 21.6587 8.30627 21.3887 8.57616C21.1186 8.84605 20.9668 9.21207 20.9665 9.59382ZM11.1523 25.7677C9.98229 25.7144 9.34636 25.5196 8.92375 25.3549C8.36347 25.1368 7.96371 24.877 7.54341 24.4573C7.1231 24.0376 6.86293 23.6382 6.64577 23.078C6.48103 22.6556 6.28614 22.0195 6.23295 20.8495C6.17477 19.5846 6.16316 19.2047 6.16316 16.0001C6.16316 12.7955 6.17573 12.4166 6.23295 11.1507C6.28624 9.9807 6.48256 9.34586 6.64577 8.92221C6.86389 8.36195 7.12368 7.96221 7.54341 7.54192C7.96313 7.12163 8.36251 6.86147 8.92375 6.64432C9.34617 6.47958 9.98229 6.2847 11.1523 6.23152C12.4172 6.17334 12.7972 6.16173 16.0005 6.16173C19.2037 6.16173 19.5841 6.1743 20.8501 6.23152C22.0201 6.2848 22.655 6.48112 23.0787 6.64432C23.6389 6.86147 24.0387 7.12221 24.459 7.54192C24.8793 7.96163 25.1385 8.36195 25.3566 8.92221C25.5214 9.34461 25.7163 9.9807 25.7694 11.1507C25.8276 12.4166 25.8392 12.7955 25.8392 16.0001C25.8392 19.2047 25.8276 19.5836 25.7694 20.8495C25.7162 22.0195 25.5203 22.6554 25.3566 23.078C25.1385 23.6382 24.8787 24.038 24.459 24.4573C24.0393 24.8766 23.6389 25.1368 23.0787 25.3549C22.6562 25.5196 22.0201 25.7145 20.8501 25.7677C19.5852 25.8259 19.2052 25.8375 16.0005 25.8375C12.7958 25.8375 12.4168 25.8259 11.1523 25.7677ZM11.0529 4.07267C9.7754 4.13085 8.90244 4.33341 8.14007 4.63005C7.35053 4.93638 6.68216 5.34736 6.01426 6.01418C5.34636 6.68099 4.93642 7.3504 4.63007 8.1399C4.33342 8.90272 4.13085 9.77517 4.07267 11.0526C4.01354 12.3321 4 12.7412 4 16C4 19.2588 4.01354 19.6679 4.07267 20.9474C4.13085 22.2249 4.33342 23.0973 4.63007 23.8601C4.93642 24.6491 5.34645 25.3193 6.01426 25.9858C6.68206 26.6524 7.35053 27.0628 8.14007 27.37C8.90388 27.6666 9.7754 27.8692 11.0529 27.9273C12.3331 27.9855 12.7415 28 16.0005 28C19.2594 28 19.6685 27.9865 20.948 27.9273C22.2257 27.8692 23.098 27.6666 23.8609 27.37C24.6499 27.0628 25.3188 26.6526 25.9867 25.9858C26.6546 25.319 27.0637 24.6491 27.3709 23.8601C27.6675 23.0973 27.8711 22.2248 27.9283 20.9474C27.9865 19.6669 28 19.2588 28 16C28 12.7412 27.9865 12.3321 27.9283 11.0526C27.8701 9.77507 27.6675 8.90224 27.3709 8.1399C27.0637 7.35088 26.6535 6.68205 25.9867 6.01418C25.3199 5.3463 24.6499 4.93638 23.8619 4.63005C23.098 4.33341 22.2256 4.12989 20.949 4.07267C19.6695 4.0145 19.2604 4 16.0014 4C12.7425 4 12.3331 4.01354 11.0529 4.07267Z" fill="#101010"/>
</svg>
