<svg width="24" height="22" viewBox="0 0 24 22" fill="none" xmlns="http://www.w3.org/2000/svg">
<path d="M11.2951 5.54172L12 6.85496L12.7049 5.54173C13.0053 4.98206 13.5021 4.24066 14.2255 3.67031L13.7323 3.04476L14.2255 3.67031C14.9658 3.0866 15.7875 2.8 16.6875 2.8C19.2005 2.8 21.2 4.88971 21.2 7.87445C21.2 9.44225 20.5933 10.7928 19.4154 12.2417C18.2173 13.7156 16.4876 15.2218 14.3129 17.1111L14.3129 17.1111L14.3119 17.112C13.6137 17.7186 12.8235 18.4051 12 19.1377C11.1769 18.4055 10.3869 17.7192 9.68933 17.1131L9.68754 17.1115L9.68752 17.1115C7.51259 15.222 5.78281 13.7157 4.58462 12.2418C3.40672 10.7928 2.8 9.44225 2.8 7.87445C2.8 4.88971 4.79951 2.8 7.3125 2.8C8.2125 2.8 9.03415 3.0866 9.77449 3.67031L10.2208 3.10429L9.77449 3.67031C10.4979 4.24066 10.9947 4.98204 11.2951 5.54172Z" fill="white" stroke="#101010" stroke-width="1.6"/>
</svg>
