<?xml version="1.0" encoding="utf-8"?><svg width="176" height="81" viewBox="0 0 176 81" xmlns="http://www.w3.org/2000/svg" xmlns:xlink="http://www.w3.org/1999/xlink"><svg width="24" height="22" fill="none" viewBox="0 0 24 22" id="like" x="64" y="49" xmlns="http://www.w3.org/2000/svg"><path d="M11.295 5.542L12 6.855l.705-1.313c.3-.56.797-1.301 1.52-1.872l-.493-.625.494.625c.74-.583 1.561-.87 2.461-.87 2.514 0 4.513 2.09 4.513 5.074 0 1.568-.607 2.919-1.785 4.368-1.198 1.474-2.927 2.98-5.102 4.87h0-.001c-.698.607-1.489 1.293-2.312 2.026-.823-.733-1.613-1.419-2.31-2.025l-.002-.002h0c-2.175-1.889-3.905-3.395-5.103-4.87C3.407 10.794 2.8 9.443 2.8 7.875 2.8 4.89 4.8 2.8 7.313 2.8c.9 0 1.721.287 2.461.87l.447-.566-.447.566c.724.57 1.22 1.312 1.521 1.872z" fill="#fff" stroke="#101010" stroke-width="1.6"/></svg><svg width="176" height="49" fill="none" viewBox="0 0 176 49" id="logo" xmlns="http://www.w3.org/2000/svg"><path d="M21.132 27l-2.628-8.856H8.208L5.58 27H.9L8.568 1.62h9.54L25.812 27h-4.68zM9.396 14.112h7.884L13.932 2.808h-1.188L9.396 14.112zm44.446.252c0 2.808-1.02 5.076-3.06 6.804-2.016 1.704-4.968 2.688-8.856 2.952V27h-4.14v-2.88c-3.912-.264-6.888-1.248-8.928-2.952-2.016-1.728-3.024-3.996-3.024-6.804 0-2.784 1.008-5.028 3.024-6.732 2.04-1.728 5.016-2.724 8.928-2.988V1.62h4.14v3.024c3.888.264 6.84 1.26 8.856 2.988 2.04 1.704 3.06 3.948 3.06 6.732zm-11.916 5.724c2.544-.168 4.392-.72 5.544-1.656 1.152-.96 1.728-2.316 1.728-4.068 0-1.752-.588-3.096-1.764-4.032-1.152-.936-2.988-1.488-5.508-1.656v11.412zm-9.72-9.756c-1.152.936-1.728 2.28-1.728 4.032 0 1.752.576 3.108 1.728 4.068 1.176.936 3.036 1.488 5.58 1.656V8.676c-2.544.168-4.404.72-5.58 1.656zm51.168 4.032c0 2.808-1.02 5.076-3.06 6.804-2.016 1.704-4.968 2.688-8.856 2.952V27h-4.14v-2.88c-3.912-.264-6.889-1.248-8.928-2.952-2.017-1.728-3.025-3.996-3.025-6.804 0-2.784 1.008-5.028 3.024-6.732 2.04-1.728 5.017-2.724 8.928-2.988V1.62h4.14v3.024c3.889.264 6.84 1.26 8.857 2.988 2.04 1.704 3.06 3.948 3.06 6.732zm-11.916 5.724C74 19.92 75.85 19.368 77 18.432c1.152-.96 1.728-2.316 1.728-4.068 0-1.752-.588-3.096-1.763-4.032-1.152-.936-2.988-1.488-5.508-1.656v11.412zm-9.72-9.756c-1.152.936-1.728 2.28-1.728 4.032 0 1.752.576 3.108 1.727 4.068 1.176.936 3.036 1.488 5.58 1.656V8.676c-2.543.168-4.403.72-5.58 1.656zM86.257 27V1.62h17.172v4.032H90.902v6.624h10.728v4.032H90.902v6.66h12.528V27H86.258zm41.685-25.38v4.032h-8.46V27h-4.644V5.652h-8.532V1.62h21.636zm24.187 0v4.032h-8.46V27h-4.644V5.652h-8.532V1.62h21.636zM170.124 27l-2.628-8.856H157.2L154.572 27h-4.68l7.668-25.38h9.54L174.804 27h-4.68zm-11.736-12.888h7.884l-3.348-11.304h-1.188l-3.348 11.304z" fill="url(#bpaint0_linear)"/><path d="M21.132 27l-2.628-8.856H8.208L5.58 27H.9L8.568 1.62h9.54L25.812 27h-4.68zM9.396 14.112h7.884L13.932 2.808h-1.188L9.396 14.112zm44.446.252c0 2.808-1.02 5.076-3.06 6.804-2.016 1.704-4.968 2.688-8.856 2.952V27h-4.14v-2.88c-3.912-.264-6.888-1.248-8.928-2.952-2.016-1.728-3.024-3.996-3.024-6.804 0-2.784 1.008-5.028 3.024-6.732 2.04-1.728 5.016-2.724 8.928-2.988V1.62h4.14v3.024c3.888.264 6.84 1.26 8.856 2.988 2.04 1.704 3.06 3.948 3.06 6.732zm-11.916 5.724c2.544-.168 4.392-.72 5.544-1.656 1.152-.96 1.728-2.316 1.728-4.068 0-1.752-.588-3.096-1.764-4.032-1.152-.936-2.988-1.488-5.508-1.656v11.412zm-9.72-9.756c-1.152.936-1.728 2.28-1.728 4.032 0 1.752.576 3.108 1.728 4.068 1.176.936 3.036 1.488 5.58 1.656V8.676c-2.544.168-4.404.72-5.58 1.656zm51.168 4.032c0 2.808-1.02 5.076-3.06 6.804-2.016 1.704-4.968 2.688-8.856 2.952V27h-4.14v-2.88c-3.912-.264-6.889-1.248-8.928-2.952-2.017-1.728-3.025-3.996-3.025-6.804 0-2.784 1.008-5.028 3.024-6.732 2.04-1.728 5.017-2.724 8.928-2.988V1.62h4.14v3.024c3.889.264 6.84 1.26 8.857 2.988 2.04 1.704 3.06 3.948 3.06 6.732zm-11.916 5.724C74 19.92 75.85 19.368 77 18.432c1.152-.96 1.728-2.316 1.728-4.068 0-1.752-.588-3.096-1.763-4.032-1.152-.936-2.988-1.488-5.508-1.656v11.412zm-9.72-9.756c-1.152.936-1.728 2.28-1.728 4.032 0 1.752.576 3.108 1.727 4.068 1.176.936 3.036 1.488 5.58 1.656V8.676c-2.543.168-4.403.72-5.58 1.656zM86.257 27V1.62h17.172v4.032H90.902v6.624h10.728v4.032H90.902v6.66h12.528V27H86.258zm41.685-25.38v4.032h-8.46V27h-4.644V5.652h-8.532V1.62h21.636zm24.187 0v4.032h-8.46V27h-4.644V5.652h-8.532V1.62h21.636zM170.124 27l-2.628-8.856H157.2L154.572 27h-4.68l7.668-25.38h9.54L174.804 27h-4.68zm-11.736-12.888h7.884l-3.348-11.304h-1.188l-3.348 11.304z" fill="#000"/><path d="M44.621 42.074h2.365c-.066.264-.165.51-.297.737-.124.227-.29.429-.495.605-.198.169-.432.3-.704.396a2.78 2.78 0 01-.924.143c-.38 0-.737-.066-1.067-.198a2.473 2.473 0 01-.847-.572 2.735 2.735 0 01-.572-.891 3.175 3.175 0 01-.198-1.144c0-.418.07-.8.21-1.144.139-.345.33-.638.571-.88.242-.242.525-.429.847-.561.33-.132.682-.198 1.056-.198.536 0 .99.114 1.364.341.382.22.679.513.891.88l1.056-.715a3.519 3.519 0 00-.825-.913 3.42 3.42 0 00-1.11-.583 4.262 4.262 0 00-1.376-.209c-.579 0-1.118.099-1.617.297-.49.19-.92.462-1.287.814a3.8 3.8 0 00-.847 1.265 4.203 4.203 0 00-.297 1.606c0 .587.1 1.126.297 1.617.198.491.477.917.836 1.276.367.36.796.638 1.287.836a4.42 4.42 0 001.606.286c.616 0 1.163-.11 1.64-.33a3.483 3.483 0 001.198-.924c.323-.389.565-.832.726-1.331a4.834 4.834 0 00.22-1.606h-3.707v1.1zm21.418-.748L68.48 45h1.573l-2.618-3.674h-1.397zM64.444 37.3V45h1.298v-7.7h-1.298zm.77 1.133h1.55c.302 0 .562.051.782.154.22.095.392.238.517.429.124.19.187.425.187.704a1.3 1.3 0 01-.187.704c-.125.19-.297.337-.517.44-.22.095-.48.143-.781.143h-1.551v1.078h1.606c.565 0 1.052-.099 1.463-.297.418-.198.74-.477.968-.836.227-.36.34-.777.34-1.254 0-.484-.113-.906-.34-1.265a2.256 2.256 0 00-.968-.836c-.41-.198-.898-.297-1.463-.297h-1.606v1.133zm21.491 2.717c0-.396.062-.759.187-1.089.132-.337.315-.627.55-.869.235-.25.51-.44.825-.572.323-.14.678-.209 1.067-.209.381 0 .73.07 1.045.209.323.132.601.323.836.572.235.242.414.532.54.869.124.33.186.693.186 1.089s-.066.763-.198 1.1c-.125.33-.304.62-.539.869a2.569 2.569 0 01-.836.572 2.68 2.68 0 01-1.045.198c-.381 0-.733-.066-1.056-.198a2.62 2.62 0 01-.825-.572 2.737 2.737 0 01-.55-.869 3.149 3.149 0 01-.187-1.1zm-1.375 0c0 .572.1 1.104.297 1.595.198.484.477.91.836 1.276.36.36.781.642 1.265.847a4.174 4.174 0 001.595.297c.58 0 1.111-.099 1.595-.297a3.921 3.921 0 001.276-.847c.36-.367.638-.792.836-1.276a4.227 4.227 0 00.297-1.595c0-.572-.099-1.1-.297-1.584a3.59 3.59 0 00-.847-1.265 3.781 3.781 0 00-1.276-.836 4.144 4.144 0 00-1.584-.297c-.572 0-1.1.099-1.584.297-.484.198-.91.477-1.276.836-.36.352-.638.774-.836 1.265a4.144 4.144 0 00-.297 1.584zm23.999-3.85v5.17c0 .425.066.807.198 1.144.14.337.334.623.583.858.25.235.547.414.891.539.345.125.723.187 1.133.187.411 0 .789-.062 1.133-.187a2.54 2.54 0 00.891-.539c.25-.235.44-.52.572-.858a2.96 2.96 0 00.209-1.144V37.3h-1.298v5.115c0 .315-.058.594-.176.836a1.22 1.22 0 01-.506.55c-.22.132-.495.198-.825.198-.33 0-.608-.066-.836-.198a1.315 1.315 0 01-.506-.55 2.001 2.001 0 01-.165-.836V37.3h-1.298zm22.069 0V45h1.298v-7.7h-1.298zm.77 1.144h1.551c.301 0 .561.048.781.143.22.095.393.235.517.418.125.183.187.414.187.693 0 .271-.062.502-.187.693a1.168 1.168 0 01-.517.418c-.22.088-.48.132-.781.132h-1.551v1.144h1.551c.565 0 1.053-.095 1.463-.286a2.29 2.29 0 00.957-.825c.228-.36.341-.785.341-1.276s-.113-.917-.341-1.276a2.193 2.193 0 00-.957-.825c-.41-.198-.898-.297-1.463-.297h-1.551v1.144z" fill="url(#bpaint1_linear)"/><path d="M44.621 42.074h2.365c-.066.264-.165.51-.297.737-.124.227-.29.429-.495.605-.198.169-.432.3-.704.396a2.78 2.78 0 01-.924.143c-.38 0-.737-.066-1.067-.198a2.473 2.473 0 01-.847-.572 2.735 2.735 0 01-.572-.891 3.175 3.175 0 01-.198-1.144c0-.418.07-.8.21-1.144.139-.345.33-.638.571-.88.242-.242.525-.429.847-.561.33-.132.682-.198 1.056-.198.536 0 .99.114 1.364.341.382.22.679.513.891.88l1.056-.715a3.519 3.519 0 00-.825-.913 3.42 3.42 0 00-1.11-.583 4.262 4.262 0 00-1.376-.209c-.579 0-1.118.099-1.617.297-.49.19-.92.462-1.287.814a3.8 3.8 0 00-.847 1.265 4.203 4.203 0 00-.297 1.606c0 .587.1 1.126.297 1.617.198.491.477.917.836 1.276.367.36.796.638 1.287.836a4.42 4.42 0 001.606.286c.616 0 1.163-.11 1.64-.33a3.483 3.483 0 001.198-.924c.323-.389.565-.832.726-1.331a4.834 4.834 0 00.22-1.606h-3.707v1.1zm21.418-.748L68.48 45h1.573l-2.618-3.674h-1.397zM64.444 37.3V45h1.298v-7.7h-1.298zm.77 1.133h1.55c.302 0 .562.051.782.154.22.095.392.238.517.429.124.19.187.425.187.704a1.3 1.3 0 01-.187.704c-.125.19-.297.337-.517.44-.22.095-.48.143-.781.143h-1.551v1.078h1.606c.565 0 1.052-.099 1.463-.297.418-.198.74-.477.968-.836.227-.36.34-.777.34-1.254 0-.484-.113-.906-.34-1.265a2.256 2.256 0 00-.968-.836c-.41-.198-.898-.297-1.463-.297h-1.606v1.133zm21.491 2.717c0-.396.062-.759.187-1.089.132-.337.315-.627.55-.869.235-.25.51-.44.825-.572.323-.14.678-.209 1.067-.209.381 0 .73.07 1.045.209.323.132.601.323.836.572.235.242.414.532.54.869.124.33.186.693.186 1.089s-.066.763-.198 1.1c-.125.33-.304.62-.539.869a2.569 2.569 0 01-.836.572 2.68 2.68 0 01-1.045.198c-.381 0-.733-.066-1.056-.198a2.62 2.62 0 01-.825-.572 2.737 2.737 0 01-.55-.869 3.149 3.149 0 01-.187-1.1zm-1.375 0c0 .572.1 1.104.297 1.595.198.484.477.91.836 1.276.36.36.781.642 1.265.847a4.174 4.174 0 001.595.297c.58 0 1.111-.099 1.595-.297a3.921 3.921 0 001.276-.847c.36-.367.638-.792.836-1.276a4.227 4.227 0 00.297-1.595c0-.572-.099-1.1-.297-1.584a3.59 3.59 0 00-.847-1.265 3.781 3.781 0 00-1.276-.836 4.144 4.144 0 00-1.584-.297c-.572 0-1.1.099-1.584.297-.484.198-.91.477-1.276.836-.36.352-.638.774-.836 1.265a4.144 4.144 0 00-.297 1.584zm23.999-3.85v5.17c0 .425.066.807.198 1.144.14.337.334.623.583.858.25.235.547.414.891.539.345.125.723.187 1.133.187.411 0 .789-.062 1.133-.187a2.54 2.54 0 00.891-.539c.25-.235.44-.52.572-.858a2.96 2.96 0 00.209-1.144V37.3h-1.298v5.115c0 .315-.058.594-.176.836a1.22 1.22 0 01-.506.55c-.22.132-.495.198-.825.198-.33 0-.608-.066-.836-.198a1.315 1.315 0 01-.506-.55 2.001 2.001 0 01-.165-.836V37.3h-1.298zm22.069 0V45h1.298v-7.7h-1.298zm.77 1.144h1.551c.301 0 .561.048.781.143.22.095.393.235.517.418.125.183.187.414.187.693 0 .271-.062.502-.187.693a1.168 1.168 0 01-.517.418c-.22.088-.48.132-.781.132h-1.551v1.144h1.551c.565 0 1.053-.095 1.463-.286a2.29 2.29 0 00.957-.825c.228-.36.341-.785.341-1.276s-.113-.917-.341-1.276a2.193 2.193 0 00-.957-.825c-.41-.198-.898-.297-1.463-.297h-1.551v1.144z" fill="#000"/><defs><linearGradient id="bpaint0_linear" x1="0" y1="0" x2="13.391" y2="67.337" gradientUnits="userSpaceOnUse"><stop stop-color="#836FFF"/><stop offset=".156" stop-color="#FF2F48"/><stop offset=".275" stop-color="#FF6AA0"/><stop offset=".422" stop-color="#FFDF61"/><stop offset=".56" stop-color="#EFF3D3"/><stop offset=".703" stop-color="#83EEDB"/><stop offset=".859" stop-color="#25B7FF"/><stop offset="1" stop-color="#846EFE"/></linearGradient><linearGradient id="bpaint1_linear" x1="40" y1="33" x2="45.139" y2="64.152" gradientUnits="userSpaceOnUse"><stop stop-color="#836FFF"/><stop offset=".156" stop-color="#FF2F48"/><stop offset=".275" stop-color="#FF6AA0"/><stop offset=".422" stop-color="#FFDF61"/><stop offset=".56" stop-color="#EFF3D3"/><stop offset=".703" stop-color="#83EEDB"/><stop offset=".859" stop-color="#25B7FF"/><stop offset="1" stop-color="#846EFE"/></linearGradient></defs></svg><svg width="32" height="32" fill="none" viewBox="0 0 32 32" id="teleg" y="49" xmlns="http://www.w3.org/2000/svg"><path fill-rule="evenodd" clip-rule="evenodd" d="M21.363 24.358c.064.05.133.091.209.12.934.344 1.39-.303 1.523-.545a.62.62 0 00.06-.18l3.189-16.015a.68.68 0 00.013-.218c-.112-.868-1.297-.404-1.47-.331l-.044.018L6.81 14.284l-.032.012c-.117.044-.842.342-.772.833.07.488.65.742.748.782l.03.01 4.046 1.357a.996.996 0 01.638.654c.364 1.19 1.28 4.185 1.502 4.873.146.48.283.693.373.788a.37.37 0 00.242.107.556.556 0 00.38-.132l2.302-2.084a1 1 0 011.28-.053l3.817 2.927zm.873-13.849a1.805 1.805 0 01.252-.124c.277-.107.343.306.14.524-.3.3-7.28 6.566-8.415 7.582-.036.032-.07.055-.103.09a.259.259 0 00-.073.183l-.28 2.389c-.05.254-.38.28-.457.05l-1.195-3.914c-.05-.152 0-.33.153-.432l9.978-6.348z" fill="#101010"/></svg><svg width="32" height="32" fill="none" viewBox="0 0 32 32" id="viber" x="32" y="49" xmlns="http://www.w3.org/2000/svg"><path d="M24.178 7.357C22.049 5.18 19.102 4 16.095 4 9.702 4 4.563 9.16 4.625 15.438c0 1.854.49 3.655 1.319 5.3.115.23.147.495.079.744l-1.064 3.856a1 1 0 001.211 1.235l4.025-1.029a1.05 1.05 0 01.734.087c1.6.805 3.351 1.183 5.102 1.183 6.33 0 11.469-5.16 11.469-11.438 0-3.046-1.19-5.906-3.322-8.02zm-8.084 17.53c-1.692 0-3.384-.436-4.826-1.306l-.043-.021a1 1 0 00-.692-.073l-1.623.416a1 1 0 01-1.215-1.225l.387-1.46a.991.991 0 00-.135-.807c-2.758-4.414-1.442-10.257 3.07-12.992 4.513-2.735 10.341-1.43 13.099 3.046 2.757 4.476 1.441 10.257-3.071 12.992-1.442.932-3.196 1.43-4.951 1.43zm5.515-6.9l-.683-.308-.012-.006a49.18 49.18 0 01-1.444-.656c-.119-.057-.236-.15-.368-.15a.69.69 0 00-.547.244c-.109.12-.323.362-.746.841-.057.064-.1.142-.164.198a.357.357 0 01-.235.085h-.063a.236.236 0 01-.077-.018c-.126-.047-.238-.132-.363-.182l-.124-.049c-.689-.31-1.316-.683-1.817-1.18-.125-.125-.313-.25-.439-.374-.438-.435-.877-.932-1.19-1.491l-.012-.023c-.034-.067-.074-.113-.105-.182a.676.676 0 01-.065-.335.33.33 0 01.025-.099c.016-.033.043-.06.066-.088a7.04 7.04 0 01.404-.455c.102-.1.162-.243.249-.36.04-.052.084-.101.115-.16.09-.172.128-.377.075-.536-.063-.311-.815-1.99-1.003-2.362a.664.664 0 00-.289-.254.735.735 0 00-.31-.057h-.529c-.104 0-.209.043-.313.057a.188.188 0 00-.108.05.18.18 0 01-.04.029c-.072.04-.145.098-.217.15-.087.063-.178.124-.244.208-.066.084-.122.168-.206.252a3.154 3.154 0 00-.69 1.927c0 .497.126.994.314 1.43l.062.186a10.36 10.36 0 002.32 3.17l.25.249c.149.148.298.257.416.389.061.068.12.138.19.197a11.206 11.206 0 004.407 2.273c.14.046.314.058.47.087.106.019.212.038.318.038h.466c.313 0 .69-.125.94-.249.188-.124.313-.124.439-.249l.125-.124c.125-.124.25-.187.376-.31.125-.125.25-.25.313-.374.113-.222.175-.495.231-.772a.987.987 0 00.02-.198v-.335s-.063-.062-.188-.125z" fill="#101010"/></svg></svg>