<?xml version="1.0" encoding="utf-8"?><svg width="176" height="49" viewBox="0 0 176 49" xmlns="http://www.w3.org/2000/svg" xmlns:xlink="http://www.w3.org/1999/xlink"><svg width="176" height="49" fill="none" viewBox="0 0 176 49" id="logo" xmlns="http://www.w3.org/2000/svg"><path d="M21.132 27l-2.628-8.856H8.208L5.58 27H.9L8.568 1.62h9.54L25.812 27h-4.68zM9.396 14.112h7.884L13.932 2.808h-1.188L9.396 14.112zm44.446.252c0 2.808-1.02 5.076-3.06 6.804-2.016 1.704-4.968 2.688-8.856 2.952V27h-4.14v-2.88c-3.912-.264-6.888-1.248-8.928-2.952-2.016-1.728-3.024-3.996-3.024-6.804 0-2.784 1.008-5.028 3.024-6.732 2.04-1.728 5.016-2.724 8.928-2.988V1.62h4.14v3.024c3.888.264 6.84 1.26 8.856 2.988 2.04 1.704 3.06 3.948 3.06 6.732zm-11.916 5.724c2.544-.168 4.392-.72 5.544-1.656 1.152-.96 1.728-2.316 1.728-4.068 0-1.752-.588-3.096-1.764-4.032-1.152-.936-2.988-1.488-5.508-1.656v11.412zm-9.72-9.756c-1.152.936-1.728 2.28-1.728 4.032 0 1.752.576 3.108 1.728 4.068 1.176.936 3.036 1.488 5.58 1.656V8.676c-2.544.168-4.404.72-5.58 1.656zm51.168 4.032c0 2.808-1.02 5.076-3.06 6.804-2.016 1.704-4.968 2.688-8.856 2.952V27h-4.14v-2.88c-3.912-.264-6.889-1.248-8.928-2.952-2.017-1.728-3.025-3.996-3.025-6.804 0-2.784 1.008-5.028 3.024-6.732 2.04-1.728 5.017-2.724 8.928-2.988V1.62h4.14v3.024c3.889.264 6.84 1.26 8.857 2.988 2.04 1.704 3.06 3.948 3.06 6.732zm-11.916 5.724C74 19.92 75.85 19.368 77 18.432c1.152-.96 1.728-2.316 1.728-4.068 0-1.752-.588-3.096-1.763-4.032-1.152-.936-2.988-1.488-5.508-1.656v11.412zm-9.72-9.756c-1.152.936-1.728 2.28-1.728 4.032 0 1.752.576 3.108 1.727 4.068 1.176.936 3.036 1.488 5.58 1.656V8.676c-2.543.168-4.403.72-5.58 1.656zM86.257 27V1.62h17.172v4.032H90.902v6.624h10.728v4.032H90.902v6.66h12.528V27H86.258zm41.685-25.38v4.032h-8.46V27h-4.644V5.652h-8.532V1.62h21.636zm24.187 0v4.032h-8.46V27h-4.644V5.652h-8.532V1.62h21.636zM170.124 27l-2.628-8.856H157.2L154.572 27h-4.68l7.668-25.38h9.54L174.804 27h-4.68zm-11.736-12.888h7.884l-3.348-11.304h-1.188l-3.348 11.304z" fill="url(#apaint0_linear)"/><path d="M21.132 27l-2.628-8.856H8.208L5.58 27H.9L8.568 1.62h9.54L25.812 27h-4.68zM9.396 14.112h7.884L13.932 2.808h-1.188L9.396 14.112zm44.446.252c0 2.808-1.02 5.076-3.06 6.804-2.016 1.704-4.968 2.688-8.856 2.952V27h-4.14v-2.88c-3.912-.264-6.888-1.248-8.928-2.952-2.016-1.728-3.024-3.996-3.024-6.804 0-2.784 1.008-5.028 3.024-6.732 2.04-1.728 5.016-2.724 8.928-2.988V1.62h4.14v3.024c3.888.264 6.84 1.26 8.856 2.988 2.04 1.704 3.06 3.948 3.06 6.732zm-11.916 5.724c2.544-.168 4.392-.72 5.544-1.656 1.152-.96 1.728-2.316 1.728-4.068 0-1.752-.588-3.096-1.764-4.032-1.152-.936-2.988-1.488-5.508-1.656v11.412zm-9.72-9.756c-1.152.936-1.728 2.28-1.728 4.032 0 1.752.576 3.108 1.728 4.068 1.176.936 3.036 1.488 5.58 1.656V8.676c-2.544.168-4.404.72-5.58 1.656zm51.168 4.032c0 2.808-1.02 5.076-3.06 6.804-2.016 1.704-4.968 2.688-8.856 2.952V27h-4.14v-2.88c-3.912-.264-6.889-1.248-8.928-2.952-2.017-1.728-3.025-3.996-3.025-6.804 0-2.784 1.008-5.028 3.024-6.732 2.04-1.728 5.017-2.724 8.928-2.988V1.62h4.14v3.024c3.889.264 6.84 1.26 8.857 2.988 2.04 1.704 3.06 3.948 3.06 6.732zm-11.916 5.724C74 19.92 75.85 19.368 77 18.432c1.152-.96 1.728-2.316 1.728-4.068 0-1.752-.588-3.096-1.763-4.032-1.152-.936-2.988-1.488-5.508-1.656v11.412zm-9.72-9.756c-1.152.936-1.728 2.28-1.728 4.032 0 1.752.576 3.108 1.727 4.068 1.176.936 3.036 1.488 5.58 1.656V8.676c-2.543.168-4.403.72-5.58 1.656zM86.257 27V1.62h17.172v4.032H90.902v6.624h10.728v4.032H90.902v6.66h12.528V27H86.258zm41.685-25.38v4.032h-8.46V27h-4.644V5.652h-8.532V1.62h21.636zm24.187 0v4.032h-8.46V27h-4.644V5.652h-8.532V1.62h21.636zM170.124 27l-2.628-8.856H157.2L154.572 27h-4.68l7.668-25.38h9.54L174.804 27h-4.68zm-11.736-12.888h7.884l-3.348-11.304h-1.188l-3.348 11.304z" fill="#000"/><path d="M44.621 42.074h2.365c-.066.264-.165.51-.297.737-.124.227-.29.429-.495.605-.198.169-.432.3-.704.396a2.78 2.78 0 01-.924.143c-.38 0-.737-.066-1.067-.198a2.473 2.473 0 01-.847-.572 2.735 2.735 0 01-.572-.891 3.175 3.175 0 01-.198-1.144c0-.418.07-.8.21-1.144.139-.345.33-.638.571-.88.242-.242.525-.429.847-.561.33-.132.682-.198 1.056-.198.536 0 .99.114 1.364.341.382.22.679.513.891.88l1.056-.715a3.519 3.519 0 00-.825-.913 3.42 3.42 0 00-1.11-.583 4.262 4.262 0 00-1.376-.209c-.579 0-1.118.099-1.617.297-.49.19-.92.462-1.287.814a3.8 3.8 0 00-.847 1.265 4.203 4.203 0 00-.297 1.606c0 .587.1 1.126.297 1.617.198.491.477.917.836 1.276.367.36.796.638 1.287.836a4.42 4.42 0 001.606.286c.616 0 1.163-.11 1.64-.33a3.483 3.483 0 001.198-.924c.323-.389.565-.832.726-1.331a4.834 4.834 0 00.22-1.606h-3.707v1.1zm21.418-.748L68.48 45h1.573l-2.618-3.674h-1.397zM64.444 37.3V45h1.298v-7.7h-1.298zm.77 1.133h1.55c.302 0 .562.051.782.154.22.095.392.238.517.429.124.19.187.425.187.704a1.3 1.3 0 01-.187.704c-.125.19-.297.337-.517.44-.22.095-.48.143-.781.143h-1.551v1.078h1.606c.565 0 1.052-.099 1.463-.297.418-.198.74-.477.968-.836.227-.36.34-.777.34-1.254 0-.484-.113-.906-.34-1.265a2.256 2.256 0 00-.968-.836c-.41-.198-.898-.297-1.463-.297h-1.606v1.133zm21.491 2.717c0-.396.062-.759.187-1.089.132-.337.315-.627.55-.869.235-.25.51-.44.825-.572.323-.14.678-.209 1.067-.209.381 0 .73.07 1.045.209.323.132.601.323.836.572.235.242.414.532.54.869.124.33.186.693.186 1.089s-.066.763-.198 1.1c-.125.33-.304.62-.539.869a2.569 2.569 0 01-.836.572 2.68 2.68 0 01-1.045.198c-.381 0-.733-.066-1.056-.198a2.62 2.62 0 01-.825-.572 2.737 2.737 0 01-.55-.869 3.149 3.149 0 01-.187-1.1zm-1.375 0c0 .572.1 1.104.297 1.595.198.484.477.91.836 1.276.36.36.781.642 1.265.847a4.174 4.174 0 001.595.297c.58 0 1.111-.099 1.595-.297a3.921 3.921 0 001.276-.847c.36-.367.638-.792.836-1.276a4.227 4.227 0 00.297-1.595c0-.572-.099-1.1-.297-1.584a3.59 3.59 0 00-.847-1.265 3.781 3.781 0 00-1.276-.836 4.144 4.144 0 00-1.584-.297c-.572 0-1.1.099-1.584.297-.484.198-.91.477-1.276.836-.36.352-.638.774-.836 1.265a4.144 4.144 0 00-.297 1.584zm23.999-3.85v5.17c0 .425.066.807.198 1.144.14.337.334.623.583.858.25.235.547.414.891.539.345.125.723.187 1.133.187.411 0 .789-.062 1.133-.187a2.54 2.54 0 00.891-.539c.25-.235.44-.52.572-.858a2.96 2.96 0 00.209-1.144V37.3h-1.298v5.115c0 .315-.058.594-.176.836a1.22 1.22 0 01-.506.55c-.22.132-.495.198-.825.198-.33 0-.608-.066-.836-.198a1.315 1.315 0 01-.506-.55 2.001 2.001 0 01-.165-.836V37.3h-1.298zm22.069 0V45h1.298v-7.7h-1.298zm.77 1.144h1.551c.301 0 .561.048.781.143.22.095.393.235.517.418.125.183.187.414.187.693 0 .271-.062.502-.187.693a1.168 1.168 0 01-.517.418c-.22.088-.48.132-.781.132h-1.551v1.144h1.551c.565 0 1.053-.095 1.463-.286a2.29 2.29 0 00.957-.825c.228-.36.341-.785.341-1.276s-.113-.917-.341-1.276a2.193 2.193 0 00-.957-.825c-.41-.198-.898-.297-1.463-.297h-1.551v1.144z" fill="url(#apaint1_linear)"/><path d="M44.621 42.074h2.365c-.066.264-.165.51-.297.737-.124.227-.29.429-.495.605-.198.169-.432.3-.704.396a2.78 2.78 0 01-.924.143c-.38 0-.737-.066-1.067-.198a2.473 2.473 0 01-.847-.572 2.735 2.735 0 01-.572-.891 3.175 3.175 0 01-.198-1.144c0-.418.07-.8.21-1.144.139-.345.33-.638.571-.88.242-.242.525-.429.847-.561.33-.132.682-.198 1.056-.198.536 0 .99.114 1.364.341.382.22.679.513.891.88l1.056-.715a3.519 3.519 0 00-.825-.913 3.42 3.42 0 00-1.11-.583 4.262 4.262 0 00-1.376-.209c-.579 0-1.118.099-1.617.297-.49.19-.92.462-1.287.814a3.8 3.8 0 00-.847 1.265 4.203 4.203 0 00-.297 1.606c0 .587.1 1.126.297 1.617.198.491.477.917.836 1.276.367.36.796.638 1.287.836a4.42 4.42 0 001.606.286c.616 0 1.163-.11 1.64-.33a3.483 3.483 0 001.198-.924c.323-.389.565-.832.726-1.331a4.834 4.834 0 00.22-1.606h-3.707v1.1zm21.418-.748L68.48 45h1.573l-2.618-3.674h-1.397zM64.444 37.3V45h1.298v-7.7h-1.298zm.77 1.133h1.55c.302 0 .562.051.782.154.22.095.392.238.517.429.124.19.187.425.187.704a1.3 1.3 0 01-.187.704c-.125.19-.297.337-.517.44-.22.095-.48.143-.781.143h-1.551v1.078h1.606c.565 0 1.052-.099 1.463-.297.418-.198.74-.477.968-.836.227-.36.34-.777.34-1.254 0-.484-.113-.906-.34-1.265a2.256 2.256 0 00-.968-.836c-.41-.198-.898-.297-1.463-.297h-1.606v1.133zm21.491 2.717c0-.396.062-.759.187-1.089.132-.337.315-.627.55-.869.235-.25.51-.44.825-.572.323-.14.678-.209 1.067-.209.381 0 .73.07 1.045.209.323.132.601.323.836.572.235.242.414.532.54.869.124.33.186.693.186 1.089s-.066.763-.198 1.1c-.125.33-.304.62-.539.869a2.569 2.569 0 01-.836.572 2.68 2.68 0 01-1.045.198c-.381 0-.733-.066-1.056-.198a2.62 2.62 0 01-.825-.572 2.737 2.737 0 01-.55-.869 3.149 3.149 0 01-.187-1.1zm-1.375 0c0 .572.1 1.104.297 1.595.198.484.477.91.836 1.276.36.36.781.642 1.265.847a4.174 4.174 0 001.595.297c.58 0 1.111-.099 1.595-.297a3.921 3.921 0 001.276-.847c.36-.367.638-.792.836-1.276a4.227 4.227 0 00.297-1.595c0-.572-.099-1.1-.297-1.584a3.59 3.59 0 00-.847-1.265 3.781 3.781 0 00-1.276-.836 4.144 4.144 0 00-1.584-.297c-.572 0-1.1.099-1.584.297-.484.198-.91.477-1.276.836-.36.352-.638.774-.836 1.265a4.144 4.144 0 00-.297 1.584zm23.999-3.85v5.17c0 .425.066.807.198 1.144.14.337.334.623.583.858.25.235.547.414.891.539.345.125.723.187 1.133.187.411 0 .789-.062 1.133-.187a2.54 2.54 0 00.891-.539c.25-.235.44-.52.572-.858a2.96 2.96 0 00.209-1.144V37.3h-1.298v5.115c0 .315-.058.594-.176.836a1.22 1.22 0 01-.506.55c-.22.132-.495.198-.825.198-.33 0-.608-.066-.836-.198a1.315 1.315 0 01-.506-.55 2.001 2.001 0 01-.165-.836V37.3h-1.298zm22.069 0V45h1.298v-7.7h-1.298zm.77 1.144h1.551c.301 0 .561.048.781.143.22.095.393.235.517.418.125.183.187.414.187.693 0 .271-.062.502-.187.693a1.168 1.168 0 01-.517.418c-.22.088-.48.132-.781.132h-1.551v1.144h1.551c.565 0 1.053-.095 1.463-.286a2.29 2.29 0 00.957-.825c.228-.36.341-.785.341-1.276s-.113-.917-.341-1.276a2.193 2.193 0 00-.957-.825c-.41-.198-.898-.297-1.463-.297h-1.551v1.144z" fill="#000"/><defs><linearGradient id="apaint0_linear" x1="0" y1="0" x2="13.391" y2="67.337" gradientUnits="userSpaceOnUse"><stop stop-color="#836FFF"/><stop offset=".156" stop-color="#FF2F48"/><stop offset=".275" stop-color="#FF6AA0"/><stop offset=".422" stop-color="#FFDF61"/><stop offset=".56" stop-color="#EFF3D3"/><stop offset=".703" stop-color="#83EEDB"/><stop offset=".859" stop-color="#25B7FF"/><stop offset="1" stop-color="#846EFE"/></linearGradient><linearGradient id="apaint1_linear" x1="40" y1="33" x2="45.139" y2="64.152" gradientUnits="userSpaceOnUse"><stop stop-color="#836FFF"/><stop offset=".156" stop-color="#FF2F48"/><stop offset=".275" stop-color="#FF6AA0"/><stop offset=".422" stop-color="#FFDF61"/><stop offset=".56" stop-color="#EFF3D3"/><stop offset=".703" stop-color="#83EEDB"/><stop offset=".859" stop-color="#25B7FF"/><stop offset="1" stop-color="#846EFE"/></linearGradient></defs></svg></svg>