<svg width="33" height="32" viewBox="0 0 33 32" fill="none" xmlns="http://www.w3.org/2000/svg">
<path d="M18.394 20.5148C18.394 20.5148 19.1015 20.5784 19.4831 20.1093L20.2224 19.1792C20.5801 18.7181 21.4467 18.424 22.2893 18.893C22.7583 19.1554 23.609 19.68 24.1336 20.0696C24.6981 20.483 25.8428 21.4369 25.8507 21.4449C26.3993 21.9059 26.5265 22.5817 26.1528 23.3051C26.1528 23.3051 26.1528 23.313 26.1528 23.321C25.7713 23.9967 25.2545 24.6327 24.6106 25.2209C24.6027 25.2209 24.6027 25.2289 24.5947 25.2289C24.0621 25.6741 23.5374 25.9285 23.0286 25.9841C22.965 26 22.8935 26 22.7981 26C22.5755 26 22.3529 25.9682 22.1303 25.8967L22.1144 25.8728C21.3195 25.6502 19.9998 25.0937 17.8057 23.8774C16.3748 23.0904 15.1903 22.2875 14.1807 21.4846C13.6481 21.0633 13.1075 20.5943 12.551 20.0378C12.5351 20.0219 12.5113 19.998 12.4954 19.9821C12.4795 19.9662 12.4556 19.9424 12.4397 19.9265C12.4238 19.9106 12.4 19.8867 12.3841 19.8708C12.3682 19.8549 12.3443 19.8311 12.3284 19.8152C11.7799 19.2587 11.3029 18.7181 10.8816 18.1855C10.0787 17.1839 9.27577 15.9914 8.48876 14.5605C7.27247 12.3584 6.716 11.0388 6.49341 10.2518L6.46956 10.2359C6.39801 10.0133 6.36621 9.79071 6.36621 9.56812C6.36621 9.47272 6.36621 9.40118 6.38211 9.33758C6.44571 8.82086 6.7001 8.30413 7.13732 7.7715C7.13732 7.76355 7.14527 7.76355 7.14527 7.7556C7.73355 7.10373 8.36952 6.59496 9.04524 6.21338C9.04524 6.21338 9.05319 6.21338 9.06114 6.21338C9.7766 5.83974 10.4523 5.96694 10.9213 6.51546C10.9213 6.51546 11.8833 7.66816 12.2966 8.23258C12.6862 8.76521 13.2108 9.60787 13.4732 10.0769C13.9422 10.9196 13.6481 11.7861 13.187 12.1438L12.2569 12.8831C11.7879 13.2647 11.8515 13.9722 11.8515 13.9722C11.8515 13.9722 13.2267 19.2031 18.394 20.5148Z" fill="#101010"/>
</svg>
