<svg width="32" height="32" viewBox="0 0 32 32" fill="none" xmlns="http://www.w3.org/2000/svg">
<path d="M24.1785 7.35676C22.0477 5.18108 19.1022 4 16.094 4C9.70163 4 4.56267 9.15946 4.62534 15.4378C4.62534 17.2922 5.11551 19.0926 5.94354 20.7382C6.05948 20.9686 6.09112 21.2334 6.02251 21.4821L4.95852 25.3382C4.75425 26.0785 5.42613 26.7632 6.17018 26.573L10.1955 25.544C10.4419 25.481 10.7021 25.5162 10.9293 25.6305C12.5286 26.4359 14.28 26.8135 16.0313 26.8135C22.361 26.8135 27.5 21.6541 27.5 15.3757C27.5 12.3297 26.3093 9.47027 24.1785 7.35676ZM16.094 24.8865C14.4019 24.8865 12.7098 24.4514 11.2684 23.5811L11.2252 23.5597C11.0105 23.4532 10.7646 23.4274 10.5325 23.4869L8.91003 23.9031C8.17002 24.0929 7.49908 23.4165 7.69498 22.678L8.08231 21.2181C8.15555 20.9421 8.10619 20.6479 7.94687 20.4108C5.18937 15.9973 6.50545 10.1541 11.0177 7.41892C15.53 4.68378 21.3583 5.98919 24.1158 10.4649C26.8733 14.9405 25.5572 20.7216 21.045 23.4568C19.6035 24.3892 17.8488 24.8865 16.094 24.8865ZM21.609 17.9865L20.9261 17.6786C20.9218 17.6766 20.9181 17.675 20.9138 17.6731C20.8392 17.6407 20.0608 17.3016 19.4697 17.0173C19.3513 16.9604 19.2336 16.8676 19.1022 16.8676C18.9859 16.8676 18.8936 16.8913 18.8104 16.9242C18.7107 16.9636 18.6265 17.0315 18.5548 17.1112C18.4464 17.2319 18.2316 17.473 17.8087 17.952C17.7522 18.016 17.7096 18.0936 17.6451 18.1497C17.5797 18.2067 17.4949 18.2351 17.4101 18.2351H17.3474C17.3269 18.2351 17.2996 18.2285 17.27 18.2173C17.1437 18.1696 17.032 18.0851 16.9066 18.0354L16.7834 17.9865C16.094 17.6757 15.4673 17.3027 14.9659 16.8054C14.8406 16.6811 14.6526 16.5568 14.5272 16.4324C14.0886 15.9973 13.6499 15.5 13.3365 14.9405L13.3251 14.9179C13.2911 14.8505 13.2509 14.8051 13.2201 14.7363C13.1754 14.6364 13.1416 14.51 13.1547 14.4014C13.1591 14.3644 13.1668 14.3306 13.18 14.3022C13.1956 14.2688 13.2227 14.2425 13.2461 14.2139C13.3216 14.1223 13.5045 13.9037 13.6499 13.7595C13.7518 13.6583 13.8123 13.5161 13.8988 13.3996C13.9381 13.3466 13.9833 13.2976 14.0139 13.2391C14.1042 13.0666 14.1421 12.862 14.0886 12.7027C14.0259 12.3919 13.2738 10.7135 13.0858 10.3405C12.9971 10.2085 12.9084 10.1388 12.7974 10.0873C12.7007 10.0424 12.5928 10.0297 12.4861 10.0297H12.4591C12.3338 10.0297 12.1458 10.0297 11.9578 10.0297C11.8535 10.0297 11.7492 10.0728 11.6449 10.0872C11.6047 10.0928 11.5656 10.1079 11.5368 10.1365C11.525 10.1481 11.5115 10.1576 11.497 10.1656C11.4246 10.2055 11.3521 10.2637 11.2797 10.3163C11.1929 10.3792 11.1025 10.4399 11.0362 10.5242C10.9702 10.608 10.9142 10.6918 10.8297 10.7757C10.391 11.3351 10.1403 12.0189 10.1403 12.7027C10.1403 13.2 10.2657 13.6973 10.4537 14.1324L10.5163 14.3189C11.0804 15.5 11.8324 16.5568 12.8351 17.4892L13.0858 17.7378C13.235 17.8858 13.3842 17.9947 13.5021 18.1265C13.5632 18.1948 13.6224 18.2654 13.6929 18.324C14.9836 19.3969 16.4525 20.1738 18.0995 20.5973C18.2388 20.6434 18.4126 20.6553 18.5698 20.6837C18.6748 20.7027 18.7805 20.7216 18.8872 20.7216C19.0431 20.7216 19.2149 20.7216 19.3529 20.7216C19.6662 20.7216 20.0422 20.5973 20.2929 20.473C20.4809 20.3486 20.6063 20.3486 20.7316 20.2243L20.8569 20.1C20.9823 19.9757 21.1076 19.9135 21.233 19.7892C21.3583 19.6649 21.4837 19.5405 21.5463 19.4162C21.6585 19.1937 21.7205 18.9213 21.7772 18.6438C21.7905 18.5787 21.797 18.5125 21.797 18.4461C21.797 18.3347 21.797 18.2049 21.797 18.1108C21.797 18.1108 21.7343 18.0486 21.609 17.9865Z" fill="#101010"/>
</svg>
