<svg width="32" height="32" viewBox="0 0 32 32" fill="none" xmlns="http://www.w3.org/2000/svg">
<path d="M10.5623 8C11.3128 8 12.0055 8.05654 12.6405 8.22615C13.2755 8.33922 13.795 8.56537 14.2569 8.84806C14.7187 9.13074 15.065 9.5265 15.2959 10.0353C15.5269 10.5442 15.6423 11.1661 15.6423 11.8445C15.6423 12.636 15.4691 13.3145 15.065 13.8233C14.7187 14.3322 14.1414 14.7845 13.4487 15.1237C14.43 15.4064 15.1805 15.9152 15.6423 16.5936C16.1041 17.2721 16.3928 18.1201 16.3928 19.0813C16.3928 19.8728 16.2196 20.5512 15.9309 21.1166C15.6423 21.682 15.1805 22.1908 14.6609 22.53C14.1414 22.8693 13.5064 23.1519 12.8137 23.3216C12.1209 23.4912 11.4282 23.6042 10.7355 23.6042H3V8H10.5623ZM10.1005 14.3322C10.7355 14.3322 11.255 14.1625 11.6591 13.8799C12.0632 13.5972 12.2364 13.0883 12.2364 12.4664C12.2364 12.1272 12.1787 11.788 12.0632 11.5618C11.9478 11.3357 11.7746 11.1661 11.5437 10.9965C11.3128 10.8834 11.0818 10.7703 10.7932 10.7138C10.5046 10.6572 10.2159 10.6572 9.86957 10.6572H6.52137V14.3322H10.1005ZM10.2737 21.0035C10.62 21.0035 10.9664 20.947 11.255 20.8905C11.5437 20.8339 11.8323 20.7208 12.0632 20.5512C12.2941 20.3816 12.4673 20.212 12.6405 19.9293C12.7559 19.6466 12.8714 19.3074 12.8714 18.9117C12.8714 18.1201 12.6405 17.5548 12.1787 17.159C11.7168 16.8198 11.0818 16.6502 10.3314 16.6502H6.52137V21.0035H10.2737ZM21.4151 20.947C21.8769 21.3993 22.5696 21.6254 23.4932 21.6254C24.1282 21.6254 24.7055 21.4558 25.1673 21.1731C25.6292 20.8339 25.9178 20.4947 26.0333 20.1555H28.8619C28.4001 21.5124 27.7074 22.4735 26.7837 23.0954C25.8601 23.6608 24.7633 24 23.4355 24C22.5119 24 21.7037 23.8304 20.9532 23.5477C20.2028 23.265 19.6255 22.8693 19.106 22.3039C18.5864 21.7951 18.1823 21.1731 17.9514 20.4382C17.6628 19.7032 17.5473 18.9117 17.5473 18.0071C17.5473 17.159 17.6628 16.3675 17.9514 15.6325C18.24 14.8975 18.6441 14.2756 19.1637 13.7102C19.6832 13.2014 20.3182 12.7491 21.011 12.4664C21.7614 12.1837 22.5119 12.0141 23.4355 12.0141C24.4169 12.0141 25.2828 12.1837 26.0333 12.5795C26.7837 12.9753 27.361 13.4276 27.8228 14.106C28.2846 14.7279 28.631 15.4629 28.8619 16.2544C28.9774 17.0459 29.0351 17.8375 28.9774 18.742H20.6069C20.6069 19.6466 20.9532 20.4947 21.4151 20.947ZM25.0519 15.0106C24.6478 14.6148 24.0128 14.3887 23.2623 14.3887C22.7428 14.3887 22.3387 14.5018 21.9923 14.6714C21.646 14.841 21.4151 15.0671 21.1841 15.2933C20.9532 15.5194 20.8378 15.8021 20.7801 16.0848C20.7223 16.3675 20.6646 16.5936 20.6646 16.8198H25.8601C25.7446 15.9717 25.456 15.4064 25.0519 15.0106ZM19.9719 9.0742H26.4373V10.6007H19.9719V9.0742Z" fill="#101010"/>
</svg>
