<svg width="25" height="51" viewBox="0 0 25 51" fill="none" xmlns="http://www.w3.org/2000/svg">
<g clip-path="url(#clip0)">
<path fill-rule="evenodd" clip-rule="evenodd" d="M48.7849 50.6674C51.0737 49.2517 53.1295 47.4873 54.8311 45.4179C55.2937 45.1826 58.0893 43.6529 60.6195 43.9653C57.2741 44.6695 54.6429 46.1875 54.2995 46.2004C54.9962 46.7355 56.8758 46.4803 58.807 45.7317C60.3747 45.114 62.1106 44.1772 62.874 43.3218C59.4863 42.1787 56.4261 43.7352 55.0464 45.1557C55.8828 44.1103 56.6326 43.0012 57.2852 41.8427C58.1644 41.737 59.4971 40.592 60.6218 39.0945C61.6302 37.755 62.6202 36.0476 62.8149 34.9063C59.081 35.7453 57.3001 39.0409 57.0423 40.933C57.1971 40.6926 58.8242 37.7267 61.2382 36.6247C58.7594 38.9636 57.3188 41.646 57.0274 41.8301C57.0524 41.8264 57.0668 41.837 57.0918 41.8333C56.3479 43.146 55.478 44.3881 54.4887 45.5202C55.4065 43.7596 55.9676 40.5183 53.9778 37.658C53.3626 38.6447 52.9442 40.5736 52.7911 42.2328C52.5949 44.1924 52.8478 45.9954 53.4917 46.6023C51.8783 48.2495 50.0369 49.6622 47.9885 50.8119C49.3865 49.427 50.9481 46.3686 49.7718 42.9777C48.9074 43.7588 47.9858 45.4944 47.3844 47.0671C46.6783 48.8727 46.4406 50.6468 46.8431 51.4304C44.8465 52.4189 42.6825 53.1512 40.4221 53.5911C42.1685 52.6399 44.3511 50.3708 44.41 47.0256C43.327 47.4686 41.8674 48.7859 40.7685 50.0367C39.5389 51.4348 38.7114 52.9517 38.7609 53.852C37.067 54.0666 35.3211 54.1101 33.5587 53.9642C33.0392 53.914 32.5197 53.8638 31.9963 53.7885C33.9721 53.4934 36.7909 52.1137 37.987 49.0076C36.8172 49.0545 34.9966 49.7738 33.5243 50.5946C31.874 51.5058 30.5663 52.6471 30.3291 53.5134C25.4224 52.4558 27.6091 54.2572 20.7756 49.2262C20.2415 48.833 19.7036 48.4148 19.2118 47.9641C19.8021 47.3135 19.9465 45.515 19.6453 43.5658C19.4011 41.9021 18.8643 40.0008 18.1915 39.0403C16.3287 42.0542 17.1422 45.333 18.1955 47.0165C16.5237 45.3871 15.0423 43.4991 13.8445 41.377C14.6014 40.8932 15.3028 39.3056 15.6828 37.4591C16.0042 35.8132 16.1754 33.8573 15.8728 32.7264C13.2477 34.7804 12.7712 37.9068 13.0867 39.8667C12.8739 39.3999 12.6466 38.9225 12.455 38.427C11.7923 36.7874 11.3153 35.1074 11.0172 33.4261C11.8809 33.2204 13.0837 31.9797 14.0641 30.376C14.9426 28.9409 15.7671 27.1559 15.8579 26.0046C12.6811 27.0544 11.1625 29.8123 10.773 31.7624C10.5111 29.4877 10.5677 27.2038 10.9292 24.9894C11.8009 25.166 13.4204 24.3872 14.9349 23.1767C16.258 22.1354 17.6416 20.7399 18.1307 19.6825C14.5579 19.577 12.0869 21.9658 11.1797 23.712C11.6585 21.429 12.4713 19.2367 13.5649 17.207C14.3357 17.6415 16.1431 17.3332 17.9454 16.5782C19.4948 15.925 21.2018 14.9669 21.9613 14.0865C18.6536 13.0465 15.7107 14.5343 14.3166 15.9442C15.1182 14.6739 16.0315 13.4637 17.0641 12.3635C17.0679 12.3885 17.0824 12.3991 17.0862 12.4241C17.1899 12.1018 19.309 9.91895 20.8062 6.85741C20.4853 9.50038 18.122 11.9243 17.9384 12.1435C19.6685 11.3353 22.2866 8.65607 21.9788 4.84146C20.9363 5.38067 19.6249 6.82932 18.6309 8.17942C17.5245 9.71251 16.8375 11.3108 16.9976 12.1817C16.0746 13.1633 15.2488 14.1942 14.499 15.3033C15.4457 13.564 16.0375 10.1903 13.9255 7.28431C13.3248 8.28166 12.9458 10.2174 12.8321 11.8835C12.6764 13.9393 12.9948 15.8348 13.7232 16.3268C13.6336 15.9951 14.3016 13.0318 13.9805 9.62823C15.0303 11.9514 14.3998 15.0753 14.3125 15.5868C12.8419 17.8263 11.7532 20.3027 11.0956 22.9192C11.3168 20.9559 10.661 17.7046 7.77608 15.7578C7.55636 16.9028 7.86805 18.8376 8.32291 20.4571C8.8857 22.444 9.83504 24.1174 10.6749 24.3371C10.4786 24.0596 10.1009 21.0352 8.6237 17.9322C10.3686 19.7041 10.854 22.7636 10.9756 23.3846C10.3507 26.0474 10.1568 28.8503 10.4535 31.6823C10.0774 29.7443 8.35782 26.7285 4.82985 25.8365C5.00743 26.9861 5.96449 28.7095 6.95696 30.0825C8.16412 31.7686 9.62405 33.0206 10.4927 32.9292C10.2184 32.7273 8.81352 30.0097 6.38142 27.599C8.70224 28.7097 10.2265 31.5372 10.4854 31.9715C10.7357 34.1713 11.2938 36.3761 12.152 38.5362C12.3542 39.0173 12.5526 39.4734 12.7655 39.9402C11.7372 38.253 9.08878 36.0152 5.51045 36.3707C6.0766 37.3855 7.56926 38.6838 8.95785 39.6396C10.6746 40.815 12.4536 41.4824 13.2547 41.1199C12.9209 41.0291 10.6823 38.9602 7.56674 37.5081C10.0997 37.7561 12.4855 39.867 12.8974 40.2145C14.0992 42.694 15.6375 44.8675 17.419 46.7107C15.8062 45.5454 12.7206 44.5361 9.6383 46.032C10.5237 46.7946 12.3604 47.5046 14.0008 47.9371C16 48.4566 17.922 48.4763 18.5307 47.8613C18.1767 47.8886 15.3825 46.6952 11.9616 46.4136C14.2883 45.8232 17.0555 46.8417 17.7742 47.105C18.5451 47.8719 19.3583 48.5814 20.2033 49.2478C20.3187 49.3328 20.4342 49.4178 20.5497 49.5028C20.6652 49.5878 20.7806 49.6729 20.8961 49.7579C21.7728 50.3811 22.6917 50.947 23.6636 51.441C24.143 52.0597 25.9267 54.4139 26.05 56.786C24.7546 53.6174 22.7814 51.2787 22.7168 50.9432C22.3102 51.7071 22.8999 53.5365 23.9897 55.2912C24.8754 56.7185 26.1133 58.2722 27.1044 58.8911C27.6068 55.518 25.7268 52.8714 24.1456 51.663C26.4453 52.8024 28.9776 53.6258 31.6915 54.0514C32.1457 54.3415 34.8699 55.9927 35.859 58.3377C33.5471 55.794 30.9067 54.2709 30.7209 53.979C30.5982 54.8411 31.7783 56.3522 33.4104 57.6424C34.7356 58.6845 36.4186 59.7243 37.5558 59.9635C36.8325 56.441 33.9091 54.5766 31.9926 54.0959C32.5016 54.1605 33.0105 54.2251 33.5155 54.2647C35.8474 54.4533 38.1041 54.3208 40.2789 53.9065C40.7561 54.0142 43.9232 54.6405 45.673 56.5267C42.6487 54.9203 39.6366 54.3859 39.3623 54.184C39.558 55.0368 41.1621 56.0628 43.1306 56.7147C44.7364 57.2547 46.6663 57.6567 47.8167 57.4849C45.9211 54.406 42.5163 53.649 40.5646 53.851C43.3319 53.2971 45.9652 52.2901 48.3329 50.8883C48.962 50.8199 52.0275 50.3748 54.2377 51.5147C50.8504 51.0364 47.8359 51.5633 47.5126 51.4582C47.9718 52.195 49.8517 52.6045 51.9161 52.5518C53.5976 52.5052 55.5483 52.2138 56.5658 51.6784C53.8933 49.5336 50.6084 49.8837 48.7849 50.6674ZM16.1805 20.9709C13.5522 22.4245 11.6302 24.3095 10.9811 24.8283C11.0387 24.5385 11.0857 24.263 11.1432 23.9731C11.674 23.4337 13.7979 21.3651 16.1805 20.9709ZM19.7395 14.7763C16.7376 15.4675 14.3228 16.8125 13.6245 17.0958C13.786 16.816 13.9369 16.5506 14.0984 16.2708C14.8206 15.8945 17.371 14.5164 19.7395 14.7763ZM10.8463 32.2372C11.273 31.3554 12.531 28.9815 14.4582 27.8755C12.5892 30.021 11.4591 32.3119 10.9747 33.1512C10.9284 32.8514 10.8926 32.5371 10.8463 32.2372ZM36.0656 50.3173C34.8737 52.2083 32.4242 53.3283 31.5374 53.7165C31.2219 53.6613 30.9208 53.6168 30.6158 53.5473C31.4554 53.1023 33.8165 52.0722 36.0656 50.3173ZM18.361 41.3799C18.3202 44.4284 19.0228 47.0719 19.1319 47.861C18.8971 47.666 18.6728 47.4566 18.4486 47.2472C18.2683 46.4943 17.531 43.6259 18.361 41.3799ZM15.2217 34.9713C14.189 37.6439 13.9209 40.215 13.7559 41.1345C13.599 40.864 13.4671 40.5896 13.3207 40.3047C13.428 39.3427 13.77 36.671 15.2217 34.9713ZM54.0078 40.0057C54.9449 42.1795 54.4115 45.0204 54.2416 45.8256C54.0224 46.0628 53.8138 46.2857 53.5946 46.523C53.6577 45.7722 54.2248 43.0668 54.0078 40.0057ZM49.1496 45.2438C49.4808 47.636 48.1363 50.2785 47.7788 50.9455C47.5192 51.0865 47.2595 51.2276 47.0104 51.3542C47.313 50.5804 48.5422 48.1853 49.1496 45.2438ZM39.0504 53.8215C39.7081 53.1097 41.5599 51.3502 43.0536 48.9284C42.5843 51.1077 40.6767 53.0034 39.9613 53.6727C39.6757 53.7281 39.365 53.7873 39.0504 53.8215Z" fill="#1D1D1B"/>
</g>
<defs>
<clipPath id="clip0">
<rect width="24.8301" height="50.9001" fill="white" transform="translate(0 0.0998535)"/>
</clipPath>
</defs>
</svg>
