<svg width="176" height="49" viewBox="0 0 176 49" fill="none" xmlns="http://www.w3.org/2000/svg">
<path d="M21.132 27L18.504 18.144H8.208L5.58 27H0.9L8.568 1.62H18.108L25.812 27H21.132ZM9.396 14.112H17.28L13.932 2.808H12.744L9.396 14.112ZM53.8422 14.364C53.8422 17.172 52.8222 19.44 50.7822 21.168C48.7662 22.872 45.8142 23.856 41.9262 24.12V27H37.7862V24.12C33.8742 23.856 30.8982 22.872 28.8582 21.168C26.8422 19.44 25.8342 17.172 25.8342 14.364C25.8342 11.58 26.8422 9.336 28.8582 7.632C30.8982 5.904 33.8742 4.908 37.7862 4.644V1.62H41.9262V4.644C45.8142 4.908 48.7662 5.904 50.7822 7.632C52.8222 9.336 53.8422 11.58 53.8422 14.364ZM41.9262 20.088C44.4702 19.92 46.3182 19.368 47.4702 18.432C48.6222 17.472 49.1982 16.116 49.1982 14.364C49.1982 12.612 48.6102 11.268 47.4342 10.332C46.2822 9.396 44.4462 8.844 41.9262 8.676V20.088ZM32.2062 10.332C31.0542 11.268 30.4782 12.612 30.4782 14.364C30.4782 16.116 31.0542 17.472 32.2062 18.432C33.3822 19.368 35.2422 19.92 37.7862 20.088V8.676C35.2422 8.844 33.3822 9.396 32.2062 10.332ZM83.3735 14.364C83.3735 17.172 82.3535 19.44 80.3135 21.168C78.2975 22.872 75.3455 23.856 71.4575 24.12V27H67.3175V24.12C63.4055 23.856 60.4295 22.872 58.3895 21.168C56.3735 19.44 55.3655 17.172 55.3655 14.364C55.3655 11.58 56.3735 9.336 58.3895 7.632C60.4295 5.904 63.4055 4.908 67.3175 4.644V1.62H71.4575V4.644C75.3455 4.908 78.2975 5.904 80.3135 7.632C82.3535 9.336 83.3735 11.58 83.3735 14.364ZM71.4575 20.088C74.0015 19.92 75.8495 19.368 77.0015 18.432C78.1535 17.472 78.7295 16.116 78.7295 14.364C78.7295 12.612 78.1415 11.268 76.9655 10.332C75.8135 9.396 73.9775 8.844 71.4575 8.676V20.088ZM61.7375 10.332C60.5855 11.268 60.0095 12.612 60.0095 14.364C60.0095 16.116 60.5855 17.472 61.7375 18.432C62.9135 19.368 64.7735 19.92 67.3175 20.088V8.676C64.7735 8.844 62.9135 9.396 61.7375 10.332ZM86.258 27V1.62H103.43V5.652H90.902V12.276H101.63V16.308H90.902V22.968H103.43V27H86.258ZM127.943 1.62V5.652H119.483V27H114.839V5.652H106.307V1.62H127.943ZM152.13 1.62V5.652H143.67V27H139.026V5.652H130.494V1.62H152.13ZM170.124 27L167.496 18.144H157.2L154.572 27H149.892L157.56 1.62H167.1L174.804 27H170.124ZM158.388 14.112H166.272L162.924 2.808H161.736L158.388 14.112Z" fill="url(#paint0_linear)"/>
<path d="M21.132 27L18.504 18.144H8.208L5.58 27H0.9L8.568 1.62H18.108L25.812 27H21.132ZM9.396 14.112H17.28L13.932 2.808H12.744L9.396 14.112ZM53.8422 14.364C53.8422 17.172 52.8222 19.44 50.7822 21.168C48.7662 22.872 45.8142 23.856 41.9262 24.12V27H37.7862V24.12C33.8742 23.856 30.8982 22.872 28.8582 21.168C26.8422 19.44 25.8342 17.172 25.8342 14.364C25.8342 11.58 26.8422 9.336 28.8582 7.632C30.8982 5.904 33.8742 4.908 37.7862 4.644V1.62H41.9262V4.644C45.8142 4.908 48.7662 5.904 50.7822 7.632C52.8222 9.336 53.8422 11.58 53.8422 14.364ZM41.9262 20.088C44.4702 19.92 46.3182 19.368 47.4702 18.432C48.6222 17.472 49.1982 16.116 49.1982 14.364C49.1982 12.612 48.6102 11.268 47.4342 10.332C46.2822 9.396 44.4462 8.844 41.9262 8.676V20.088ZM32.2062 10.332C31.0542 11.268 30.4782 12.612 30.4782 14.364C30.4782 16.116 31.0542 17.472 32.2062 18.432C33.3822 19.368 35.2422 19.92 37.7862 20.088V8.676C35.2422 8.844 33.3822 9.396 32.2062 10.332ZM83.3735 14.364C83.3735 17.172 82.3535 19.44 80.3135 21.168C78.2975 22.872 75.3455 23.856 71.4575 24.12V27H67.3175V24.12C63.4055 23.856 60.4295 22.872 58.3895 21.168C56.3735 19.44 55.3655 17.172 55.3655 14.364C55.3655 11.58 56.3735 9.336 58.3895 7.632C60.4295 5.904 63.4055 4.908 67.3175 4.644V1.62H71.4575V4.644C75.3455 4.908 78.2975 5.904 80.3135 7.632C82.3535 9.336 83.3735 11.58 83.3735 14.364ZM71.4575 20.088C74.0015 19.92 75.8495 19.368 77.0015 18.432C78.1535 17.472 78.7295 16.116 78.7295 14.364C78.7295 12.612 78.1415 11.268 76.9655 10.332C75.8135 9.396 73.9775 8.844 71.4575 8.676V20.088ZM61.7375 10.332C60.5855 11.268 60.0095 12.612 60.0095 14.364C60.0095 16.116 60.5855 17.472 61.7375 18.432C62.9135 19.368 64.7735 19.92 67.3175 20.088V8.676C64.7735 8.844 62.9135 9.396 61.7375 10.332ZM86.258 27V1.62H103.43V5.652H90.902V12.276H101.63V16.308H90.902V22.968H103.43V27H86.258ZM127.943 1.62V5.652H119.483V27H114.839V5.652H106.307V1.62H127.943ZM152.13 1.62V5.652H143.67V27H139.026V5.652H130.494V1.62H152.13ZM170.124 27L167.496 18.144H157.2L154.572 27H149.892L157.56 1.62H167.1L174.804 27H170.124ZM158.388 14.112H166.272L162.924 2.808H161.736L158.388 14.112Z" fill="black"/>
<path d="M44.6214 42.074H46.9864C46.9204 42.338 46.8214 42.5837 46.6894 42.811C46.5648 43.0383 46.3998 43.24 46.1944 43.416C45.9964 43.5847 45.7618 43.7167 45.4904 43.812C45.2191 43.9073 44.9111 43.955 44.5664 43.955C44.1851 43.955 43.8294 43.889 43.4994 43.757C43.1768 43.625 42.8944 43.4343 42.6524 43.185C42.4104 42.9357 42.2198 42.6387 42.0804 42.294C41.9484 41.9493 41.8824 41.568 41.8824 41.15C41.8824 40.732 41.9521 40.3507 42.0914 40.006C42.2308 39.6613 42.4214 39.368 42.6634 39.126C42.9054 38.884 43.1878 38.697 43.5104 38.565C43.8404 38.433 44.1924 38.367 44.5664 38.367C45.1018 38.367 45.5564 38.4807 45.9304 38.708C46.3118 38.928 46.6088 39.2213 46.8214 39.588L47.8774 38.873C47.6501 38.5137 47.3751 38.2093 47.0524 37.96C46.7298 37.7033 46.3594 37.509 45.9414 37.377C45.5308 37.2377 45.0724 37.168 44.5664 37.168C43.9871 37.168 43.4481 37.267 42.9494 37.465C42.4581 37.6557 42.0291 37.927 41.6624 38.279C41.3031 38.631 41.0208 39.0527 40.8154 39.544C40.6174 40.028 40.5184 40.5633 40.5184 41.15C40.5184 41.7367 40.6174 42.2757 40.8154 42.767C41.0134 43.2583 41.2921 43.6837 41.6514 44.043C42.0181 44.4023 42.4471 44.681 42.9384 44.879C43.4298 45.0697 43.9651 45.165 44.5444 45.165C45.1604 45.165 45.7068 45.055 46.1834 44.835C46.6601 44.6077 47.0598 44.2997 47.3824 43.911C47.7051 43.5223 47.9471 43.0787 48.1084 42.58C48.2698 42.074 48.3431 41.5387 48.3284 40.974H44.6214V42.074ZM66.0389 41.326L68.4809 45H70.0539L67.4359 41.326H66.0389ZM64.4439 37.3V45H65.7419V37.3H64.4439ZM65.2139 38.433H66.7649C67.0655 38.433 67.3259 38.4843 67.5459 38.587C67.7659 38.6823 67.9382 38.8253 68.0629 39.016C68.1875 39.2067 68.2499 39.4413 68.2499 39.72C68.2499 39.9913 68.1875 40.226 68.0629 40.424C67.9382 40.6147 67.7659 40.7613 67.5459 40.864C67.3259 40.9593 67.0655 41.007 66.7649 41.007H65.2139V42.085H66.8199C67.3845 42.085 67.8722 41.986 68.2829 41.788C68.7009 41.59 69.0235 41.3113 69.2509 40.952C69.4782 40.5927 69.5919 40.1747 69.5919 39.698C69.5919 39.214 69.4782 38.7923 69.2509 38.433C69.0235 38.0737 68.7009 37.795 68.2829 37.597C67.8722 37.399 67.3845 37.3 66.8199 37.3H65.2139V38.433ZM86.7051 41.15C86.7051 40.754 86.7674 40.391 86.8921 40.061C87.0241 39.7237 87.2074 39.434 87.4421 39.192C87.6768 38.9427 87.9518 38.752 88.2671 38.62C88.5898 38.4807 88.9454 38.411 89.3341 38.411C89.7154 38.411 90.0638 38.4807 90.3791 38.62C90.7018 38.752 90.9804 38.9427 91.2151 39.192C91.4498 39.434 91.6294 39.7237 91.7541 40.061C91.8788 40.391 91.9411 40.754 91.9411 41.15C91.9411 41.546 91.8751 41.9127 91.7431 42.25C91.6184 42.58 91.4388 42.8697 91.2041 43.119C90.9694 43.361 90.6908 43.5517 90.3681 43.691C90.0528 43.823 89.7044 43.889 89.3231 43.889C88.9418 43.889 88.5898 43.823 88.2671 43.691C87.9518 43.5517 87.6768 43.361 87.4421 43.119C87.2074 42.8697 87.0241 42.58 86.8921 42.25C86.7674 41.9127 86.7051 41.546 86.7051 41.15ZM85.3301 41.15C85.3301 41.722 85.4291 42.2537 85.6271 42.745C85.8251 43.229 86.1038 43.6543 86.4631 44.021C86.8224 44.3803 87.2441 44.6627 87.7281 44.868C88.2121 45.066 88.7438 45.165 89.3231 45.165C89.9024 45.165 90.4341 45.066 90.9181 44.868C91.4094 44.6627 91.8348 44.3803 92.1941 44.021C92.5534 43.6543 92.8321 43.229 93.0301 42.745C93.2281 42.2537 93.3271 41.722 93.3271 41.15C93.3271 40.578 93.2281 40.05 93.0301 39.566C92.8321 39.0747 92.5498 38.653 92.1831 38.301C91.8238 37.9417 91.3984 37.663 90.9071 37.465C90.4231 37.267 89.8951 37.168 89.3231 37.168C88.7511 37.168 88.2231 37.267 87.7391 37.465C87.2551 37.663 86.8298 37.9417 86.4631 38.301C86.1038 38.653 85.8251 39.0747 85.6271 39.566C85.4291 40.05 85.3301 40.578 85.3301 41.15ZM109.329 37.3V42.47C109.329 42.8953 109.395 43.2767 109.527 43.614C109.667 43.9513 109.861 44.2373 110.11 44.472C110.36 44.7067 110.657 44.8863 111.001 45.011C111.346 45.1357 111.724 45.198 112.134 45.198C112.545 45.198 112.923 45.1357 113.267 45.011C113.612 44.8863 113.909 44.7067 114.158 44.472C114.408 44.2373 114.598 43.9513 114.73 43.614C114.87 43.2767 114.939 42.8953 114.939 42.47V37.3H113.641V42.415C113.641 42.7303 113.583 43.009 113.465 43.251C113.355 43.4857 113.187 43.669 112.959 43.801C112.739 43.933 112.464 43.999 112.134 43.999C111.804 43.999 111.526 43.933 111.298 43.801C111.078 43.669 110.91 43.4857 110.792 43.251C110.682 43.009 110.627 42.7303 110.627 42.415V37.3H109.329ZM131.398 37.3V45H132.696V37.3H131.398ZM132.168 38.444H133.719C134.02 38.444 134.28 38.4917 134.5 38.587C134.72 38.6823 134.893 38.8217 135.017 39.005C135.142 39.1883 135.204 39.4193 135.204 39.698C135.204 39.9693 135.142 40.2003 135.017 40.391C134.893 40.5743 134.72 40.7137 134.5 40.809C134.28 40.897 134.02 40.941 133.719 40.941H132.168V42.085H133.719C134.284 42.085 134.772 41.9897 135.182 41.799C135.593 41.601 135.912 41.326 136.139 40.974C136.367 40.6147 136.48 40.1893 136.48 39.698C136.48 39.2067 136.367 38.7813 136.139 38.422C135.912 38.0627 135.593 37.7877 135.182 37.597C134.772 37.399 134.284 37.3 133.719 37.3H132.168V38.444Z" fill="url(#paint1_linear)"/>
<path d="M44.6214 42.074H46.9864C46.9204 42.338 46.8214 42.5837 46.6894 42.811C46.5648 43.0383 46.3998 43.24 46.1944 43.416C45.9964 43.5847 45.7618 43.7167 45.4904 43.812C45.2191 43.9073 44.9111 43.955 44.5664 43.955C44.1851 43.955 43.8294 43.889 43.4994 43.757C43.1768 43.625 42.8944 43.4343 42.6524 43.185C42.4104 42.9357 42.2198 42.6387 42.0804 42.294C41.9484 41.9493 41.8824 41.568 41.8824 41.15C41.8824 40.732 41.9521 40.3507 42.0914 40.006C42.2308 39.6613 42.4214 39.368 42.6634 39.126C42.9054 38.884 43.1878 38.697 43.5104 38.565C43.8404 38.433 44.1924 38.367 44.5664 38.367C45.1018 38.367 45.5564 38.4807 45.9304 38.708C46.3118 38.928 46.6088 39.2213 46.8214 39.588L47.8774 38.873C47.6501 38.5137 47.3751 38.2093 47.0524 37.96C46.7298 37.7033 46.3594 37.509 45.9414 37.377C45.5308 37.2377 45.0724 37.168 44.5664 37.168C43.9871 37.168 43.4481 37.267 42.9494 37.465C42.4581 37.6557 42.0291 37.927 41.6624 38.279C41.3031 38.631 41.0208 39.0527 40.8154 39.544C40.6174 40.028 40.5184 40.5633 40.5184 41.15C40.5184 41.7367 40.6174 42.2757 40.8154 42.767C41.0134 43.2583 41.2921 43.6837 41.6514 44.043C42.0181 44.4023 42.4471 44.681 42.9384 44.879C43.4298 45.0697 43.9651 45.165 44.5444 45.165C45.1604 45.165 45.7068 45.055 46.1834 44.835C46.6601 44.6077 47.0598 44.2997 47.3824 43.911C47.7051 43.5223 47.9471 43.0787 48.1084 42.58C48.2698 42.074 48.3431 41.5387 48.3284 40.974H44.6214V42.074ZM66.0389 41.326L68.4809 45H70.0539L67.4359 41.326H66.0389ZM64.4439 37.3V45H65.7419V37.3H64.4439ZM65.2139 38.433H66.7649C67.0655 38.433 67.3259 38.4843 67.5459 38.587C67.7659 38.6823 67.9382 38.8253 68.0629 39.016C68.1875 39.2067 68.2499 39.4413 68.2499 39.72C68.2499 39.9913 68.1875 40.226 68.0629 40.424C67.9382 40.6147 67.7659 40.7613 67.5459 40.864C67.3259 40.9593 67.0655 41.007 66.7649 41.007H65.2139V42.085H66.8199C67.3845 42.085 67.8722 41.986 68.2829 41.788C68.7009 41.59 69.0235 41.3113 69.2509 40.952C69.4782 40.5927 69.5919 40.1747 69.5919 39.698C69.5919 39.214 69.4782 38.7923 69.2509 38.433C69.0235 38.0737 68.7009 37.795 68.2829 37.597C67.8722 37.399 67.3845 37.3 66.8199 37.3H65.2139V38.433ZM86.7051 41.15C86.7051 40.754 86.7674 40.391 86.8921 40.061C87.0241 39.7237 87.2074 39.434 87.4421 39.192C87.6768 38.9427 87.9518 38.752 88.2671 38.62C88.5898 38.4807 88.9454 38.411 89.3341 38.411C89.7154 38.411 90.0638 38.4807 90.3791 38.62C90.7018 38.752 90.9804 38.9427 91.2151 39.192C91.4498 39.434 91.6294 39.7237 91.7541 40.061C91.8788 40.391 91.9411 40.754 91.9411 41.15C91.9411 41.546 91.8751 41.9127 91.7431 42.25C91.6184 42.58 91.4388 42.8697 91.2041 43.119C90.9694 43.361 90.6908 43.5517 90.3681 43.691C90.0528 43.823 89.7044 43.889 89.3231 43.889C88.9418 43.889 88.5898 43.823 88.2671 43.691C87.9518 43.5517 87.6768 43.361 87.4421 43.119C87.2074 42.8697 87.0241 42.58 86.8921 42.25C86.7674 41.9127 86.7051 41.546 86.7051 41.15ZM85.3301 41.15C85.3301 41.722 85.4291 42.2537 85.6271 42.745C85.8251 43.229 86.1038 43.6543 86.4631 44.021C86.8224 44.3803 87.2441 44.6627 87.7281 44.868C88.2121 45.066 88.7438 45.165 89.3231 45.165C89.9024 45.165 90.4341 45.066 90.9181 44.868C91.4094 44.6627 91.8348 44.3803 92.1941 44.021C92.5534 43.6543 92.8321 43.229 93.0301 42.745C93.2281 42.2537 93.3271 41.722 93.3271 41.15C93.3271 40.578 93.2281 40.05 93.0301 39.566C92.8321 39.0747 92.5498 38.653 92.1831 38.301C91.8238 37.9417 91.3984 37.663 90.9071 37.465C90.4231 37.267 89.8951 37.168 89.3231 37.168C88.7511 37.168 88.2231 37.267 87.7391 37.465C87.2551 37.663 86.8298 37.9417 86.4631 38.301C86.1038 38.653 85.8251 39.0747 85.6271 39.566C85.4291 40.05 85.3301 40.578 85.3301 41.15ZM109.329 37.3V42.47C109.329 42.8953 109.395 43.2767 109.527 43.614C109.667 43.9513 109.861 44.2373 110.11 44.472C110.36 44.7067 110.657 44.8863 111.001 45.011C111.346 45.1357 111.724 45.198 112.134 45.198C112.545 45.198 112.923 45.1357 113.267 45.011C113.612 44.8863 113.909 44.7067 114.158 44.472C114.408 44.2373 114.598 43.9513 114.73 43.614C114.87 43.2767 114.939 42.8953 114.939 42.47V37.3H113.641V42.415C113.641 42.7303 113.583 43.009 113.465 43.251C113.355 43.4857 113.187 43.669 112.959 43.801C112.739 43.933 112.464 43.999 112.134 43.999C111.804 43.999 111.526 43.933 111.298 43.801C111.078 43.669 110.91 43.4857 110.792 43.251C110.682 43.009 110.627 42.7303 110.627 42.415V37.3H109.329ZM131.398 37.3V45H132.696V37.3H131.398ZM132.168 38.444H133.719C134.02 38.444 134.28 38.4917 134.5 38.587C134.72 38.6823 134.893 38.8217 135.017 39.005C135.142 39.1883 135.204 39.4193 135.204 39.698C135.204 39.9693 135.142 40.2003 135.017 40.391C134.893 40.5743 134.72 40.7137 134.5 40.809C134.28 40.897 134.02 40.941 133.719 40.941H132.168V42.085H133.719C134.284 42.085 134.772 41.9897 135.182 41.799C135.593 41.601 135.912 41.326 136.139 40.974C136.367 40.6147 136.48 40.1893 136.48 39.698C136.48 39.2067 136.367 38.7813 136.139 38.422C135.912 38.0627 135.593 37.7877 135.182 37.597C134.772 37.399 134.284 37.3 133.719 37.3H132.168V38.444Z" fill="black"/>
<defs>
<linearGradient id="paint0_linear" x1="0" y1="0" x2="13.3909" y2="67.337" gradientUnits="userSpaceOnUse">
<stop stop-color="#836FFF"/>
<stop offset="0.15625" stop-color="#FF2F48"/>
<stop offset="0.274794" stop-color="#FF6AA0"/>
<stop offset="0.421875" stop-color="#FFDF61"/>
<stop offset="0.560076" stop-color="#EFF3D3"/>
<stop offset="0.703125" stop-color="#83EEDB"/>
<stop offset="0.858661" stop-color="#25B7FF"/>
<stop offset="1" stop-color="#846EFE"/>
</linearGradient>
<linearGradient id="paint1_linear" x1="40" y1="33" x2="45.1385" y2="64.1524" gradientUnits="userSpaceOnUse">
<stop stop-color="#836FFF"/>
<stop offset="0.15625" stop-color="#FF2F48"/>
<stop offset="0.274794" stop-color="#FF6AA0"/>
<stop offset="0.421875" stop-color="#FFDF61"/>
<stop offset="0.560076" stop-color="#EFF3D3"/>
<stop offset="0.703125" stop-color="#83EEDB"/>
<stop offset="0.858661" stop-color="#25B7FF"/>
<stop offset="1" stop-color="#846EFE"/>
</linearGradient>
</defs>
</svg>
