<svg width="32" height="32" viewBox="0 0 32 32" fill="none" xmlns="http://www.w3.org/2000/svg">
<path fill-rule="evenodd" clip-rule="evenodd" d="M21.363 24.3581C21.427 24.4072 21.4964 24.4495 21.572 24.4774C22.5055 24.822 22.9617 24.1746 23.0946 23.933C23.1255 23.8769 23.1433 23.8157 23.1558 23.753L26.3437 7.73832C26.358 7.66641 26.3665 7.59233 26.3571 7.51961C26.2452 6.65219 25.06 7.11617 24.8866 7.18894C24.872 7.19506 24.8582 7.2009 24.8434 7.20668L6.80888 14.2835C6.79813 14.2877 6.78783 14.2916 6.77703 14.2957C6.6603 14.3402 5.93462 14.6377 6.00477 15.1287C6.07451 15.6169 6.65451 15.8712 6.75311 15.9111C6.76277 15.915 6.77227 15.9183 6.78216 15.9216L10.8289 17.2781C11.1354 17.3808 11.3726 17.6232 11.4671 17.9323C11.8307 19.1226 12.7468 22.1168 12.9695 22.8052C13.1147 23.2844 13.2517 23.4981 13.3424 23.5933C13.4045 23.6585 13.4945 23.6933 13.5843 23.6997C13.7283 23.7098 13.8499 23.6478 13.9045 23.614C13.9257 23.6009 13.9447 23.5848 13.9631 23.5681L16.266 21.4836C16.624 21.1595 17.1624 21.1376 17.5455 21.4313L21.363 24.3581ZM22.2363 10.5094C22.2437 10.5047 22.2507 10.5004 22.2582 10.496C22.2894 10.4781 22.3836 10.4257 22.4883 10.3851C22.7653 10.2777 22.8308 10.6914 22.6286 10.9091C22.3283 11.2095 15.3481 17.4749 14.2127 18.4913C14.1774 18.5229 14.1423 18.5459 14.1097 18.5802C14.0647 18.6275 14.0371 18.6886 14.0371 18.7635L13.7575 21.1529C13.7066 21.4071 13.3762 21.4325 13.2999 21.2037L12.1052 17.2892C12.0544 17.1367 12.1052 16.9588 12.2577 16.8571L22.2363 10.5094Z" fill="#101010"/>
</svg>
